<svg xmlns="http://www.w3.org/2000/svg" viewBox="0 0 750 500"><g id="freepik--background-complete--inject-49"><path d="M589.46,45.4c.46-3.36-4.28-6.13-7.85-6.41-1.7-.14-3.46.12-5.08-.44-3.49-1.22-4.88-5.73-8.29-7.16-2.54-1.08-5.47-.12-7.94,1.12s-4.91,2.81-7.67,3c-2.4.16-5-.73-7.1.44-1.56.87-2.38,2.67-3.82,3.74a9.08,9.08,0,0,1-5,1.35,14.23,14.23,0,0,0-5.16.84c-1.59.73-2.91,2.42-2.58,4.14Z" style="fill:#f5f5f5"></path><path d="M705.83,58.14c.63-4.57-5.81-8.33-10.66-8.72-2.31-.19-4.71.17-6.9-.6-4.74-1.65-6.64-7.78-11.26-9.73-3.46-1.46-7.44-.16-10.8,1.53s-6.67,3.81-10.41,4.05c-3.26.21-6.8-1-9.65.59-2.13,1.19-3.24,3.64-5.2,5.08s-4.42,1.72-6.79,1.85-4.84.15-7,1.14-3.95,3.28-3.5,5.62Z" style="fill:#ebebeb"></path><path d="M308.74,39.13c.54-4-5.06-7.25-9.28-7.59-2-.16-4.1.15-6-.52-4.13-1.43-5.77-6.76-9.8-8.46-3-1.27-6.47-.14-9.39,1.33s-5.8,3.31-9.06,3.52c-2.84.18-5.91-.87-8.4.52-1.84,1-2.81,3.16-4.52,4.42s-3.84,1.49-5.9,1.6a16.69,16.69,0,0,0-6.1,1c-1.88.87-3.44,2.86-3,4.89Z" style="fill:#ebebeb"></path><path d="M157.59,67.91c.47-3.46-4.41-6.3-8.07-6.6-1.75-.14-3.57.13-5.22-.45-3.59-1.25-5-5.89-8.53-7.36-2.62-1.11-5.63-.12-8.17,1.15s-5,2.89-7.88,3.07c-2.46.16-5.14-.76-7.3.45-1.61.9-2.45,2.75-3.93,3.84a9.3,9.3,0,0,1-5.14,1.39,14.53,14.53,0,0,0-5.3.87c-1.64.75-3,2.48-2.66,4.25Z" style="fill:#f5f5f5"></path><polygon points="536.68 428.27 247.37 428.27 268.3 403.29 515.61 403.29 536.68 428.27" style="fill:#ebebeb"></polygon><polygon points="507.58 388.01 272.98 388.87 292.1 366.01 489.44 365.15 507.58 388.01" style="fill:#ebebeb"></polygon><polygon points="478.49 351.72 299.08 350.73 314.78 330.46 463.8 330.46 478.49 351.72" style="fill:#ebebeb"></polygon><polygon points="457.69 318.48 320.43 318.48 335.17 299.96 444.6 299.96 457.69 318.48" style="fill:#ebebeb"></polygon><path d="M143.41,409.3a5.15,5.15,0,0,1,2.67,3,9,9,0,0,1,.35,4.09,16,16,0,0,1-3.43,7.46c-2.24-1.95-2.76-5.35-2.91-7.1-.24-2.75,1-7.88,3.32-7.47" style="fill:#ebebeb"></path><path d="M145.6,428.26a4.38,4.38,0,0,1,1.42-4.18,5.84,5.84,0,0,1,4.3-1.34,2.44,2.44,0,0,1,1.89.85,1.87,1.87,0,0,1,0,1.9,3.81,3.81,0,0,1-1.4,1.39c-1.94,1.22-4,2-6.23,1.38" style="fill:#ebebeb"></path><path d="M142.73,436.4a2.71,2.71,0,0,1,.08-.54l.27-1.48a15.4,15.4,0,0,1,1.52-4.71,9.45,9.45,0,0,1,3.38-3.59,6.64,6.64,0,0,1,1.38-.61,2.85,2.85,0,0,1,.4-.1c.09,0,.14,0,.14,0a8.66,8.66,0,0,0-5.13,4.41,16.55,16.55,0,0,0-1.56,4.65c-.13.62-.24,1.12-.33,1.46A2.49,2.49,0,0,1,142.73,436.4Z" style="fill:#e0e0e0"></path><path d="M142.81,413.29a.72.72,0,0,1,0,.23c0,.18,0,.41,0,.69,0,.59.07,1.46.1,2.52.07,2.13.12,5.07.11,8.32s-.09,6.19-.18,8.32c0,1.06-.09,1.93-.12,2.52,0,.28,0,.51,0,.68a.75.75,0,0,1,0,.24.87.87,0,0,1,0-.24c0-.18,0-.4,0-.68,0-.62,0-1.48.06-2.52,0-2.13.11-5.07.13-8.32s0-6.19-.06-8.32c0-1,0-1.9,0-2.52v-.68A2.17,2.17,0,0,1,142.81,413.29Z" style="fill:#e0e0e0"></path><path d="M141.73,429.88a10.29,10.29,0,0,0-5.61-7.53,2.18,2.18,0,0,0-2.34,0,2.12,2.12,0,0,0-.18,2.33,8.77,8.77,0,0,0,8.07,5.45" style="fill:#ebebeb"></path><path d="M136.48,424.87a2.82,2.82,0,0,1,.47.21,5.74,5.74,0,0,1,.54.28c.2.13.44.25.68.43a7.62,7.62,0,0,1,.78.59c.28.22.55.48.84.75a12,12,0,0,1,1.58,2,11.74,11.74,0,0,1,1,2.36c.1.38.2.74.26,1.09a9.29,9.29,0,0,1,.13,1c0,.3,0,.57,0,.8a3.78,3.78,0,0,1,0,.61,1.89,1.89,0,0,1-.06.52s0-.74-.09-1.92c0-.29-.08-.61-.16-.95s-.17-.7-.27-1.07a12.24,12.24,0,0,0-1-2.31,12.11,12.11,0,0,0-1.54-2c-.28-.28-.54-.54-.81-.76s-.52-.42-.76-.6C137.13,425.21,136.46,424.91,136.48,424.87Z" style="fill:#e0e0e0"></path><path d="M105.07,48.09c.48-3.46-4.4-6.3-8.07-6.6-1.75-.14-3.56.13-5.22-.45-3.59-1.25-5-5.88-8.52-7.36-2.62-1.11-5.64-.12-8.17,1.15s-5,2.89-7.89,3.07c-2.46.16-5.14-.76-7.3.45-1.61.9-2.45,2.75-3.93,3.84a9.39,9.39,0,0,1-5.14,1.4,14.32,14.32,0,0,0-5.3.86c-1.64.75-3,2.48-2.65,4.25Z" style="fill:#ebebeb"></path></g><g id="freepik--Floor--inject-49"><path d="M710.65,436.57c0,.15-150.29.26-335.63.26s-335.67-.11-335.67-.26,150.25-.26,335.67-.26S710.65,436.43,710.65,436.57Z" style="fill:#263238"></path></g><g id="freepik--Plants--inject-49"><path d="M95.8,428.54a12,12,0,0,1,4,8.07c-.16,0-.57-2-1.68-4.19S95.68,428.64,95.8,428.54Z" style="fill:#263238"></path><path d="M101.56,424.89c.16,0,.18,2.7.46,6s.69,6,.54,6a22.36,22.36,0,0,1-1.06-5.95A22.82,22.82,0,0,1,101.56,424.89Z" style="fill:#263238"></path><path d="M109.19,427.72a45,45,0,0,0-1.86,4.56,23,23,0,0,0-.77,4.47l0,.25-.14-.18c-.16-.19-.23-.31-.21-.34s.15,0,.35.2l-.17.07a12,12,0,0,1,.47-4.61A9.73,9.73,0,0,1,109.19,427.72Z" style="fill:#263238"></path><path d="M643.25,409.27a5.15,5.15,0,0,1,2.67,3,9,9,0,0,1,.35,4.1,16.13,16.13,0,0,1-3.43,7.46c-2.24-2-2.75-5.36-2.91-7.11-.24-2.75,1-7.88,3.32-7.47" style="fill:#FF725E"></path><path d="M645.44,428.23a4.38,4.38,0,0,1,1.42-4.17,5.8,5.8,0,0,1,4.3-1.35,2.47,2.47,0,0,1,1.89.85,1.87,1.87,0,0,1,0,1.9,3.84,3.84,0,0,1-1.41,1.39c-1.94,1.22-4,2-6.23,1.38" style="fill:#FF725E"></path><path d="M642.57,436.38a4,4,0,0,1,.08-.55l.27-1.47a15.44,15.44,0,0,1,1.52-4.72,9.45,9.45,0,0,1,3.38-3.59,6.64,6.64,0,0,1,1.38-.61,2.85,2.85,0,0,1,.4-.1l.14,0a9.39,9.39,0,0,0-1.84.85,9.69,9.69,0,0,0-3.29,3.57,16.94,16.94,0,0,0-1.56,4.64c-.13.62-.24,1.12-.33,1.47A3.12,3.12,0,0,1,642.57,436.38Z" style="fill:#263238"></path><path d="M642.65,413.26a.75.75,0,0,1,0,.24c0,.17,0,.4,0,.68,0,.6.07,1.46.1,2.52.07,2.13.13,5.07.11,8.32s-.09,6.19-.18,8.32c0,1.07-.08,1.93-.12,2.52l0,.69a.72.72,0,0,1,0,.23,2.17,2.17,0,0,1,0-.24c0-.17,0-.4,0-.68,0-.62,0-1.48.06-2.52.06-2.13.11-5.07.13-8.32s0-6.19,0-8.32c0-1,0-1.9,0-2.52v-.68A2.17,2.17,0,0,1,642.65,413.26Z" style="fill:#263238"></path><path d="M641.57,429.85a10.29,10.29,0,0,0-5.61-7.53,1.71,1.71,0,0,0-2.52,2.3,8.8,8.8,0,0,0,8.08,5.45" style="fill:#FF725E"></path><path d="M636.32,424.84a2.66,2.66,0,0,1,.48.21,5.71,5.71,0,0,1,.53.28c.2.13.45.25.68.43a9,9,0,0,1,.79.59c.27.22.54.48.83.76a11.24,11.24,0,0,1,1.58,2,11.43,11.43,0,0,1,1,2.35,10,10,0,0,1,.26,1.09c.08.35.1.67.14,1a7.87,7.87,0,0,1,0,.81,3.7,3.7,0,0,1,0,.6,3.08,3.08,0,0,1,0,.52c-.05,0,0-.74-.1-1.92,0-.29-.08-.61-.16-.95a10.49,10.49,0,0,0-.27-1.07,11.31,11.31,0,0,0-1-2.3,12.08,12.08,0,0,0-1.54-2c-.28-.28-.54-.54-.81-.76s-.52-.42-.75-.6C637,425.19,636.3,424.88,636.32,424.84Z" style="fill:#263238"></path></g><g id="freepik--high-school-building--inject-49"><rect x="44.17" y="91.28" width="660.07" height="185.26" style="fill:#FF725E"></rect><rect x="218.97" y="71.53" width="312.28" height="205.01" style="fill:#FF725E"></rect><rect x="44.17" y="221.57" width="223.29" height="18.45" style="fill:#ebebeb"></rect><rect x="482.74" y="221.57" width="221.49" height="18.45" style="fill:#ebebeb"></rect><g style="opacity:0.30000000000000004"><rect x="252.11" y="151.01" width="245.92" height="125.53"></rect></g><rect x="287.53" y="102.84" width="174.08" height="22.57" style="fill:#e0e0e0"></rect><g style="opacity:0.30000000000000004"><path d="M321.67,108.51V122h-3.83v-5.26h-5.2V122h-3.83v-13.5h3.83v5.07h5.2v-5.07Z"></path><path d="M324.37,108.51h3.82V122h-3.82Z"></path><path d="M340,115h3.37v5.6a9,9,0,0,1-2.66,1.27,10.45,10.45,0,0,1-3,.44,8.15,8.15,0,0,1-3.82-.89,6.68,6.68,0,0,1-2.66-2.5,7.28,7.28,0,0,1,0-7.26,6.6,6.6,0,0,1,2.68-2.5,8.37,8.37,0,0,1,3.88-.89,8.68,8.68,0,0,1,3.39.63,6.56,6.56,0,0,1,2.51,1.84l-2.43,2.2a4.25,4.25,0,0,0-3.28-1.51,3.63,3.63,0,0,0-3.86,3.86,4.11,4.11,0,0,0,.48,2,3.58,3.58,0,0,0,1.36,1.37,3.9,3.9,0,0,0,2,.49,5,5,0,0,0,2.07-.44Z"></path><path d="M358.62,108.51V122H354.8v-5.26h-5.21V122h-3.83v-13.5h3.83v5.07h5.21v-5.07Z"></path><path d="M368.49,121.88a7.84,7.84,0,0,1-2.5-1.08l1.25-2.82a8.29,8.29,0,0,0,2.1,1,8.2,8.2,0,0,0,2.36.36c1.46,0,2.2-.36,2.2-1.1a.92.92,0,0,0-.63-.86,11.76,11.76,0,0,0-2-.58,19.56,19.56,0,0,1-2.54-.71,4.19,4.19,0,0,1-1.76-1.21,3.22,3.22,0,0,1-.73-2.23,3.86,3.86,0,0,1,.67-2.23,4.52,4.52,0,0,1,2-1.57,8.21,8.21,0,0,1,3.29-.58,11.51,11.51,0,0,1,2.62.3,8.2,8.2,0,0,1,2.28.87l-1.18,2.84a7.88,7.88,0,0,0-3.74-1,3.1,3.1,0,0,0-1.66.34,1,1,0,0,0-.52.87.87.87,0,0,0,.62.81,10.84,10.84,0,0,0,2,.56,18.65,18.65,0,0,1,2.56.71,4.48,4.48,0,0,1,1.76,1.19,3.23,3.23,0,0,1,.74,2.23,3.79,3.79,0,0,1-.68,2.2,4.62,4.62,0,0,1-2,1.58,8.26,8.26,0,0,1-3.28.58A12.56,12.56,0,0,1,368.49,121.88Z"></path><path d="M382.34,121.39a6.65,6.65,0,0,1-2.65-2.5,7.28,7.28,0,0,1,0-7.26,6.65,6.65,0,0,1,2.65-2.5,8.05,8.05,0,0,1,3.81-.89,8.33,8.33,0,0,1,3.34.65,6.51,6.51,0,0,1,2.47,1.89l-2.43,2.2a4,4,0,0,0-3.19-1.58,4,4,0,0,0-2,.48,3.41,3.41,0,0,0-1.33,1.36,4.58,4.58,0,0,0,0,4,3.41,3.41,0,0,0,1.33,1.36,4,4,0,0,0,2,.48,4,4,0,0,0,3.19-1.58l2.43,2.2a6.51,6.51,0,0,1-2.47,1.89,8.33,8.33,0,0,1-3.34.65A8.05,8.05,0,0,1,382.34,121.39Z"></path><path d="M406.51,108.51V122h-3.82v-5.26h-5.21V122h-3.83v-13.5h3.83v5.07h5.21v-5.07Z"></path><path d="M412.17,121.38a6.91,6.91,0,0,1,0-12.24,8.68,8.68,0,0,1,7.7,0,6.91,6.91,0,0,1,0,12.24,8.68,8.68,0,0,1-7.7,0Zm5.7-2.74a3.5,3.5,0,0,0,1.31-1.36,4.41,4.41,0,0,0,0-4,3.5,3.5,0,0,0-1.31-1.36,3.81,3.81,0,0,0-3.7,0,3.52,3.52,0,0,0-1.32,1.36,4.49,4.49,0,0,0,0,4,3.52,3.52,0,0,0,1.32,1.36,3.81,3.81,0,0,0,3.7,0Z"></path><path d="M428.49,121.38a6.91,6.91,0,0,1,0-12.24,8.68,8.68,0,0,1,7.7,0,6.91,6.91,0,0,1,0,12.24,8.68,8.68,0,0,1-7.7,0Zm5.7-2.74a3.46,3.46,0,0,0,1.32-1.36,4.49,4.49,0,0,0,0-4,3.46,3.46,0,0,0-1.32-1.36,3.81,3.81,0,0,0-3.7,0,3.5,3.5,0,0,0-1.31,1.36,4.41,4.41,0,0,0,0,4,3.5,3.5,0,0,0,1.31,1.36,3.81,3.81,0,0,0,3.7,0Z"></path><path d="M441.86,108.51h3.82V119h6.44v3H441.86Z"></path></g><path d="M320.64,107.48V121h-3.82v-5.27h-5.21V121h-3.82V107.48h3.82v5.08h5.21v-5.08Z" style="fill:#263238"></path><path d="M323.34,107.48h3.82V121h-3.82Z" style="fill:#263238"></path><path d="M338.93,114h3.38v5.59a8.75,8.75,0,0,1-2.66,1.28,10.86,10.86,0,0,1-3,.44,8,8,0,0,1-3.82-.9,6.7,6.7,0,0,1-2.67-2.5,7.32,7.32,0,0,1,0-7.25,6.69,6.69,0,0,1,2.69-2.5,8.18,8.18,0,0,1,3.87-.9,8.7,8.7,0,0,1,3.4.64,6.61,6.61,0,0,1,2.51,1.83l-2.43,2.2a4.31,4.31,0,0,0-3.28-1.5,3.81,3.81,0,0,0-2.8,1.05,3.77,3.77,0,0,0-1.06,2.81,4.07,4.07,0,0,0,.48,2,3.36,3.36,0,0,0,1.35,1.37,4,4,0,0,0,2,.5,4.8,4.8,0,0,0,2.06-.45Z" style="fill:#263238"></path><path d="M357.59,107.48V121h-3.82v-5.27h-5.21V121h-3.82V107.48h3.82v5.08h5.21v-5.08Z" style="fill:#263238"></path><path d="M367.47,120.85a7.9,7.9,0,0,1-2.51-1.08l1.26-2.81a8.62,8.62,0,0,0,4.45,1.33c1.47,0,2.2-.37,2.2-1.1a.92.92,0,0,0-.62-.86,11.58,11.58,0,0,0-2-.59,19.46,19.46,0,0,1-2.55-.7,4.32,4.32,0,0,1-1.75-1.21,3.25,3.25,0,0,1-.74-2.24,3.91,3.91,0,0,1,.68-2.23,4.54,4.54,0,0,1,2-1.57,8.39,8.39,0,0,1,3.29-.58,11.57,11.57,0,0,1,2.62.3,8,8,0,0,1,2.28.88l-1.18,2.84a7.81,7.81,0,0,0-3.74-1,3.17,3.17,0,0,0-1.66.34,1,1,0,0,0-.52.88.86.86,0,0,0,.61.81,11.25,11.25,0,0,0,2,.56,19.22,19.22,0,0,1,2.56.7,4.36,4.36,0,0,1,1.75,1.2,3.18,3.18,0,0,1,.75,2.23,3.82,3.82,0,0,1-.68,2.2,4.58,4.58,0,0,1-2,1.57,8.22,8.22,0,0,1-3.28.59A12.49,12.49,0,0,1,367.47,120.85Z" style="fill:#263238"></path><path d="M381.32,120.36a6.68,6.68,0,0,1-2.66-2.5,7.32,7.32,0,0,1,0-7.25,6.68,6.68,0,0,1,2.66-2.5,7.94,7.94,0,0,1,3.81-.9,8.11,8.11,0,0,1,3.33.66,6.44,6.44,0,0,1,2.47,1.89L388.5,112a4.07,4.07,0,0,0-5.14-1.1,3.29,3.29,0,0,0-1.33,1.36,4.16,4.16,0,0,0-.47,2,4.09,4.09,0,0,0,.47,2,3.29,3.29,0,0,0,1.33,1.36,4,4,0,0,0,5.14-1.1l2.43,2.2a6.25,6.25,0,0,1-2.47,1.89,8.11,8.11,0,0,1-3.33.66A7.94,7.94,0,0,1,381.32,120.36Z" style="fill:#263238"></path><path d="M405.48,107.48V121h-3.82v-5.27h-5.21V121h-3.82V107.48h3.82v5.08h5.21v-5.08Z" style="fill:#263238"></path><path d="M411.15,120.35a6.9,6.9,0,0,1,0-12.23,8.58,8.58,0,0,1,7.69,0,6.9,6.9,0,0,1,0,12.23,8.58,8.58,0,0,1-7.69,0Zm5.7-2.74a3.43,3.43,0,0,0,1.31-1.36,4.09,4.09,0,0,0,.48-2,4.16,4.16,0,0,0-.48-2,3.43,3.43,0,0,0-1.31-1.36,3.66,3.66,0,0,0-1.86-.48,3.62,3.62,0,0,0-1.85.48,3.43,3.43,0,0,0-1.31,1.36,4.16,4.16,0,0,0-.48,2,4.09,4.09,0,0,0,.48,2,3.43,3.43,0,0,0,1.31,1.36,3.63,3.63,0,0,0,1.85.49A3.66,3.66,0,0,0,416.85,117.61Z" style="fill:#263238"></path><path d="M427.47,120.35a6.91,6.91,0,0,1,0-12.23,8.6,8.6,0,0,1,7.7,0,6.91,6.91,0,0,1,0,12.23,8.6,8.6,0,0,1-7.7,0Zm5.7-2.74a3.43,3.43,0,0,0,1.31-1.36,4.1,4.1,0,0,0,.49-2,4.16,4.16,0,0,0-.49-2,3.43,3.43,0,0,0-1.31-1.36,3.81,3.81,0,0,0-3.7,0,3.46,3.46,0,0,0-1.32,1.36,4.16,4.16,0,0,0-.48,2,4.09,4.09,0,0,0,.48,2,3.46,3.46,0,0,0,1.32,1.36,3.74,3.74,0,0,0,3.7,0Z" style="fill:#263238"></path><path d="M440.83,107.48h3.82V118h6.45v3H440.83Z" style="fill:#263238"></path><rect x="208.36" y="61.15" width="329.41" height="10.38" style="fill:#e0e0e0"></rect><rect x="267.47" y="162.79" width="218.26" height="113.76" style="fill:#263238"></rect><rect x="414.91" y="195.05" width="67.23" height="78.7" style="fill:#455a64"></rect><path d="M448.45,275.44c-.14,0-.26-18.29-.26-40.85s.12-40.85.26-40.85.26,18.29.26,40.85S448.6,275.44,448.45,275.44Z" style="fill:#263238"></path><rect x="271.35" y="195.05" width="67.23" height="78.7" style="fill:#455a64"></rect><path d="M304.89,275.44c-.14,0-.26-18.29-.26-40.85s.12-40.85.26-40.85.26,18.29.26,40.85S305,275.44,304.89,275.44Z" style="fill:#263238"></path><rect x="299.21" y="227" width="3.99" height="14.81" style="fill:#263238"></rect><rect x="307.22" y="227" width="3.99" height="14.81" style="fill:#263238"></rect><rect x="271.8" y="167.9" width="67.23" height="22.43" style="fill:#455a64"></rect><rect x="343.14" y="167.9" width="67.23" height="22.43" style="fill:#455a64"></rect><rect x="414.48" y="167.9" width="67.23" height="22.43" style="fill:#455a64"></rect><g style="opacity:0.2"><polygon points="482.17 215.88 414.94 246.39 414.94 253.72 482.17 221.75 482.17 215.88" style="fill:#fff"></polygon></g><g style="opacity:0.2"><polygon points="481.65 227.41 414.42 257.92 414.42 262.35 481.65 231.53 481.65 227.41" style="fill:#fff"></polygon></g><rect x="343.14" y="195.05" width="67.23" height="78.7" style="fill:#455a64"></rect><g style="opacity:0.2"><polygon points="410.37 195.05 343.14 225.56 343.14 240.02 410.37 207.28 410.37 195.05" style="fill:#fff"></polygon></g><g style="opacity:0.2"><polygon points="410.37 212.18 343.14 242.68 343.14 247.11 410.37 216.29 410.37 212.18" style="fill:#fff"></polygon></g><path d="M376.68,275.44c-.14,0-.26-18.29-.26-40.85s.12-40.85.26-40.85.26,18.29.26,40.85S376.82,275.44,376.68,275.44Z" style="fill:#263238"></path><path d="M388.59,229.89c-.11-.09,2.87-4.25,6.67-9.3s7-9.07,7.08-9-2.87,4.25-6.67,9.3S388.71,230,388.59,229.89Z" style="fill:#263238"></path><path d="M386.47,244.35c-.11-.08,3.37-5.21,7.78-11.45s8.08-11.23,8.2-11.15-3.37,5.21-7.78,11.45S386.59,244.43,386.47,244.35Z" style="fill:#263238"></path><path d="M349.89,249.45c-.1-.1,3.15-3.41,7.26-7.4a101.93,101.93,0,0,1,7.62-7c.1.1-3.15,3.41-7.26,7.4A99.67,99.67,0,0,1,349.89,249.45Z" style="fill:#263238"></path><path d="M345.18,262.35s.25-.32.77-.81l2.23-2.07,7.34-6.82,7.24-6.93,2.19-2.11a4.18,4.18,0,0,1,.86-.72,5.54,5.54,0,0,1-.71.87c-.48.53-1.19,1.29-2.08,2.22-1.78,1.85-4.29,4.36-7.15,7.05s-5.5,5-7.45,6.71c-1,.84-1.77,1.5-2.34,1.95A5.38,5.38,0,0,1,345.18,262.35Z" style="fill:#263238"></path><rect x="371.01" y="227" width="3.99" height="14.81" style="fill:#263238"></rect><rect x="379.01" y="227" width="3.99" height="14.81" style="fill:#263238"></rect><path d="M389.12,173.72a32.71,32.71,0,0,1-2.9,2.2l-7.05,5.21c-2.76,2-5.29,3.84-7.16,5.09-.94.63-1.7,1.12-2.24,1.44a3.33,3.33,0,0,1-.87.46,32.71,32.71,0,0,1,2.9-2.2c1.91-1.42,4.36-3.22,7.06-5.21s5.28-3.84,7.15-5.09c.94-.63,1.7-1.12,2.25-1.44A3.39,3.39,0,0,1,389.12,173.72Z" style="fill:#263238"></path><path d="M377,177.71a63.31,63.31,0,0,1-6.41,4.9,62.5,62.5,0,0,1-6.71,4.48,63.64,63.64,0,0,1,6.41-4.9A61.37,61.37,0,0,1,377,177.71Z" style="fill:#263238"></path><path d="M318,170.18a28.54,28.54,0,0,1-2.9,2.2l-7.06,5.21c-2.76,2-5.29,3.85-7.16,5.1-.93.62-1.7,1.11-2.24,1.44a3.79,3.79,0,0,1-.87.46,28.54,28.54,0,0,1,2.9-2.2l7.06-5.22c2.76-2,5.29-3.84,7.16-5.09.93-.63,1.7-1.12,2.24-1.44A3.79,3.79,0,0,1,318,170.18Z" style="fill:#263238"></path><path d="M305.91,174.17a62.47,62.47,0,0,1-6.41,4.91,63.18,63.18,0,0,1-6.71,4.48,124.26,124.26,0,0,1,13.12-9.39Z" style="fill:#263238"></path><path d="M468.26,171.91a29.36,29.36,0,0,1-2.9,2.21l-7.06,5.21c-2.76,2-5.28,3.84-7.15,5.09-.94.63-1.71,1.12-2.25,1.44a3.39,3.39,0,0,1-.86.46,29.74,29.74,0,0,1,2.89-2.2l7.06-5.21c2.76-2,5.29-3.85,7.16-5.1.93-.62,1.7-1.11,2.24-1.44A4.38,4.38,0,0,1,468.26,171.91Z" style="fill:#263238"></path><path d="M456.16,175.91a62.75,62.75,0,0,1-6.4,4.9,62.5,62.5,0,0,1-6.71,4.48,60.63,60.63,0,0,1,6.41-4.9A63,63,0,0,1,456.16,175.91Z" style="fill:#263238"></path><g style="opacity:0.2"><polygon points="329.83 195.05 303.07 195.05 271.8 208.85 271.8 221.57 329.83 195.05 329.83 195.05" style="fill:#fff"></polygon></g><g style="opacity:0.2"><polygon points="339.03 195.47 271.8 225.97 271.8 230.41 339.03 199.59 339.03 195.47" style="fill:#fff"></polygon></g><g style="opacity:0.1"><rect x="233.42" y="183.56" width="18.68" height="7.73"></rect></g><g style="opacity:0.2"><rect x="224.43" y="174.57" width="18.68" height="7.73"></rect></g><g style="opacity:0.1"><rect x="250.51" y="132.56" width="18.68" height="7.73"></rect></g><g style="opacity:0.2"><rect x="260.42" y="121.73" width="18.68" height="7.73"></rect></g><g style="opacity:0.1"><rect x="190.38" y="115.67" width="18.68" height="7.73"></rect></g><g style="opacity:0.2"><rect x="200.28" y="104.84" width="18.68" height="7.73"></rect></g><g style="opacity:0.1"><rect x="98.04" y="142.79" width="18.68" height="7.73"></rect></g><g style="opacity:0.1"><rect x="74.39" y="113.33" width="18.68" height="7.73"></rect></g><g style="opacity:0.2"><rect x="107.94" y="131.95" width="18.68" height="7.73"></rect></g><g style="opacity:0.2"><rect x="113" y="257.18" width="18.68" height="7.73"></rect></g><g style="opacity:0.2"><rect x="180.48" y="126.39" width="18.68" height="7.73"></rect></g><g style="opacity:0.1"><rect x="662.58" y="111.81" width="18.68" height="7.73"></rect></g><g style="opacity:0.2"><rect x="672.49" y="100.97" width="18.68" height="7.73"></rect></g><g style="opacity:0.1"><rect x="570.24" y="138.93" width="18.68" height="7.73"></rect></g><g style="opacity:0.1"><rect x="546.6" y="109.47" width="18.68" height="7.73"></rect></g><g style="opacity:0.2"><rect x="580.15" y="128.09" width="18.68" height="7.73"></rect></g><g style="opacity:0.2"><rect x="649.39" y="141.73" width="18.68" height="7.73"></rect></g><g style="opacity:0.2"><rect x="368.44" y="91.28" width="18.68" height="7.73"></rect></g><g style="opacity:0.1"><rect x="377.78" y="79.73" width="18.68" height="7.73"></rect></g><g style="opacity:0.2"><rect x="513.07" y="147.38" width="18.17" height="7.73"></rect></g><g style="opacity:0.1"><rect x="522.41" y="135.82" width="8.83" height="7.73"></rect></g><g style="opacity:0.2"><rect x="452.27" y="128.7" width="18.68" height="7.73"></rect></g><g style="opacity:0.1"><rect x="462.18" y="117.14" width="18.68" height="7.73"></rect></g><path d="M219,276.3c-.15,0-.26-45.79-.26-102.26s.11-102.27.26-102.27.26,45.78.26,102.27S219.11,276.3,219,276.3Z" style="fill:#263238"></path><rect x="442.78" y="227" width="3.99" height="14.81" style="fill:#263238"></rect><rect x="450.78" y="227" width="3.99" height="14.81" style="fill:#263238"></rect><rect x="137.49" y="155.52" width="72.9" height="101.2" style="fill:#ebebeb"></rect><rect x="144.55" y="162.79" width="58.79" height="86.67" style="fill:#263238"></rect><rect x="149.6" y="187.09" width="48.67" height="57.09" style="fill:#455a64"></rect><rect x="149.6" y="167.9" width="48.67" height="16.01" style="fill:#455a64"></rect><path d="M173.94,245.73c-.14,0-.26-12.92-.26-28.86s.12-28.86.26-28.86.26,12.92.26,28.86S174.08,245.73,173.94,245.73Z" style="fill:#263238"></path><path d="M168.94,219.92a76.83,76.83,0,0,1-6.54,6.14,78.12,78.12,0,0,1-6.88,5.74,75.9,75.9,0,0,1,6.54-6.13A76.06,76.06,0,0,1,168.94,219.92Z" style="fill:#263238"></path><path d="M169,215.83a29.76,29.76,0,0,1-4.07,3.86,30.36,30.36,0,0,1-4.41,3.46,30.08,30.08,0,0,1,4.07-3.85A31.81,31.81,0,0,1,169,215.83Z" style="fill:#263238"></path><path d="M194.43,202a83.16,83.16,0,0,1-7.08,6.16,85.57,85.57,0,0,1-7.41,5.76,85.31,85.31,0,0,1,7.08-6.16A85.57,85.57,0,0,1,194.43,202Z" style="fill:#263238"></path><path d="M188.2,210.84c.1.11-.53.87-1.4,1.7s-1.67,1.43-1.77,1.33.53-.87,1.41-1.7S188.1,210.74,188.2,210.84Z" style="fill:#263238"></path><rect x="56.5" y="155.52" width="72.9" height="101.2" style="fill:#ebebeb"></rect><rect x="63.55" y="162.79" width="58.79" height="86.67" style="fill:#263238"></rect><rect x="68.61" y="187.09" width="48.67" height="57.09" style="fill:#455a64"></rect><rect x="68.61" y="167.9" width="48.67" height="16.01" style="fill:#455a64"></rect><path d="M93,245.73c-.15,0-.26-12.92-.26-28.86S92.8,188,93,188s.26,12.92.26,28.86S93.09,245.73,93,245.73Z" style="fill:#263238"></path><path d="M87.94,219.92a75.7,75.7,0,0,1-6.53,6.14,75.69,75.69,0,0,1-6.89,5.74,77.76,77.76,0,0,1,6.54-6.13A79.44,79.44,0,0,1,87.94,219.92Z" style="fill:#263238"></path><path d="M88,215.83a30.5,30.5,0,0,1-4.07,3.86,30.11,30.11,0,0,1-4.42,3.46,30.57,30.57,0,0,1,4.08-3.85A31.14,31.14,0,0,1,88,215.83Z" style="fill:#263238"></path><path d="M113.44,202a83.16,83.16,0,0,1-7.08,6.16A85.57,85.57,0,0,1,99,213.87a85.31,85.31,0,0,1,7.08-6.16A83.82,83.82,0,0,1,113.44,202Z" style="fill:#263238"></path><path d="M107.2,210.84c.1.11-.53.87-1.4,1.7s-1.66,1.43-1.76,1.33.53-.87,1.4-1.7S107.1,210.74,107.2,210.84Z" style="fill:#263238"></path><rect x="622.28" y="155.52" width="72.9" height="101.2" style="fill:#ebebeb"></rect><rect x="629.33" y="162.79" width="58.79" height="86.67" style="fill:#263238"></rect><rect x="634.39" y="187.09" width="48.67" height="57.09" style="fill:#455a64"></rect><rect x="634.39" y="167.9" width="48.67" height="16.01" style="fill:#455a64"></rect><path d="M658.73,245.73c-.15,0-.26-12.92-.26-28.86s.11-28.86.26-28.86.26,12.92.26,28.86S658.87,245.73,658.73,245.73Z" style="fill:#263238"></path><path d="M653.72,219.92a75.7,75.7,0,0,1-6.53,6.14,75.69,75.69,0,0,1-6.89,5.74,77.76,77.76,0,0,1,6.54-6.13A79.44,79.44,0,0,1,653.72,219.92Z" style="fill:#263238"></path><path d="M653.76,215.83a30.5,30.5,0,0,1-4.07,3.86,30.11,30.11,0,0,1-4.42,3.46,30.57,30.57,0,0,1,4.08-3.85A31.14,31.14,0,0,1,653.76,215.83Z" style="fill:#263238"></path><path d="M679.22,202a83.16,83.16,0,0,1-7.08,6.16,85.57,85.57,0,0,1-7.41,5.76,85.31,85.31,0,0,1,7.08-6.16A83.82,83.82,0,0,1,679.22,202Z" style="fill:#263238"></path><path d="M673,210.84c.1.11-.53.87-1.4,1.7s-1.66,1.43-1.76,1.33.53-.87,1.4-1.7S672.88,210.74,673,210.84Z" style="fill:#263238"></path><rect x="541.28" y="155.52" width="72.9" height="101.2" style="fill:#ebebeb"></rect><rect x="548.34" y="162.79" width="58.79" height="86.67" style="fill:#263238"></rect><rect x="553.4" y="187.09" width="48.67" height="57.09" style="fill:#455a64"></rect><rect x="553.4" y="167.9" width="48.67" height="16.01" style="fill:#455a64"></rect><path d="M577.73,245.73c-.14,0-.26-12.92-.26-28.86s.12-28.86.26-28.86.26,12.92.26,28.86S577.88,245.73,577.73,245.73Z" style="fill:#263238"></path><path d="M572.73,219.92a76.83,76.83,0,0,1-6.54,6.14,76.45,76.45,0,0,1-6.88,5.74,75.9,75.9,0,0,1,6.54-6.13A76.06,76.06,0,0,1,572.73,219.92Z" style="fill:#263238"></path><path d="M572.76,215.83a29.76,29.76,0,0,1-4.07,3.86,30.36,30.36,0,0,1-4.41,3.46,30.08,30.08,0,0,1,4.07-3.85A31.81,31.81,0,0,1,572.76,215.83Z" style="fill:#263238"></path><path d="M598.22,202a83.16,83.16,0,0,1-7.08,6.16,85.57,85.57,0,0,1-7.41,5.76,85.31,85.31,0,0,1,7.08-6.16A85.57,85.57,0,0,1,598.22,202Z" style="fill:#263238"></path><path d="M592,210.84c.1.11-.53.87-1.4,1.7s-1.67,1.43-1.77,1.33.53-.87,1.41-1.7S591.89,210.74,592,210.84Z" style="fill:#263238"></path><path d="M145,275.29a14.5,14.5,0,0,0-17.14-6.06,10.91,10.91,0,0,0-19.92,0,11.39,11.39,0,0,0-14,3.46,12.51,12.51,0,0,0-15.53-2.46,8.44,8.44,0,0,0-15.93.42c-6.28-3.62-15.39.89-18.3,7.52H157C155.21,274.15,148.56,272.72,145,275.29Z" style="fill:#455a64"></path><path d="M213.5,273.75a48.14,48.14,0,0,0-6-.88,7.5,7.5,0,0,0-3.73-3.05c-1.35-.42-4.07-.49-5.17.4a9.48,9.48,0,0,0-18.8,1.18,8.11,8.11,0,0,0-13.18,3.21c-3.61-2-8.69,0-10.78,3.57l63.87.21C219.23,275.45,216.17,274.36,213.5,273.75Z" style="fill:#455a64"></path><path d="M635.47,275.29a14.5,14.5,0,0,0-17.14-6.06,10.91,10.91,0,0,0-19.92,0,11.39,11.39,0,0,0-14,3.46,12.51,12.51,0,0,0-15.53-2.46,8.45,8.45,0,0,0-15.94.42c-6.27-3.62-15.38.89-18.29,7.52H647.56C645.73,274.15,639.08,272.72,635.47,275.29Z" style="fill:#455a64"></path><path d="M704,273.75a48.14,48.14,0,0,0-6-.88,7.5,7.5,0,0,0-3.73-3.05c-1.35-.42-4.07-.49-5.17.4a9.49,9.49,0,0,0-18.81,1.18,8.11,8.11,0,0,0-13.17,3.21c-3.61-2-8.69,0-10.78,3.57l63.87.21C709.75,275.45,706.69,274.36,704,273.75Z" style="fill:#455a64"></path><rect x="25.16" y="277.05" width="699.68" height="10.14" style="fill:#e0e0e0"></rect><path d="M37.43,287.51a47.63,47.63,0,0,1,0-9.94,47.63,47.63,0,0,1,0,9.94Z" style="fill:#263238"></path><path d="M72.21,287.51a47.63,47.63,0,0,1,0-9.94,47.63,47.63,0,0,1,0,9.94Z" style="fill:#263238"></path><path d="M107,287.51a47.63,47.63,0,0,1,0-9.94,47.63,47.63,0,0,1,0,9.94Z" style="fill:#263238"></path><path d="M141.78,287.51a47.63,47.63,0,0,1,0-9.94,47.63,47.63,0,0,1,0,9.94Z" style="fill:#263238"></path><path d="M176.57,287.51a47.63,47.63,0,0,1,0-9.94,47.63,47.63,0,0,1,0,9.94Z" style="fill:#263238"></path><path d="M211.35,287.51a47.63,47.63,0,0,1,0-9.94,47.63,47.63,0,0,1,0,9.94Z" style="fill:#263238"></path><path d="M246.14,287.51a47.63,47.63,0,0,1,0-9.94,47.63,47.63,0,0,1,0,9.94Z" style="fill:#263238"></path><path d="M280.92,287.51a47.63,47.63,0,0,1,0-9.94,45.88,45.88,0,0,1,0,9.94Z" style="fill:#263238"></path><path d="M315.71,287.51a47.63,47.63,0,0,1,0-9.94,47.63,47.63,0,0,1,0,9.94Z" style="fill:#263238"></path><path d="M350.5,287.51a45.88,45.88,0,0,1,0-9.94,47.63,47.63,0,0,1,0,9.94Z" style="fill:#263238"></path><path d="M385.28,287.51a47.63,47.63,0,0,1,0-9.94,47.63,47.63,0,0,1,0,9.94Z" style="fill:#263238"></path><path d="M420.07,287.51a47.63,47.63,0,0,1,0-9.94,47.63,47.63,0,0,1,0,9.94Z" style="fill:#263238"></path><path d="M454.85,287.51a47.63,47.63,0,0,1,0-9.94,47.63,47.63,0,0,1,0,9.94Z" style="fill:#263238"></path><path d="M489.64,287.51a47.63,47.63,0,0,1,0-9.94,47.63,47.63,0,0,1,0,9.94Z" style="fill:#263238"></path><path d="M524.42,287.51a47.63,47.63,0,0,1,0-9.94,47.63,47.63,0,0,1,0,9.94Z" style="fill:#263238"></path><path d="M559.21,287.51a47.63,47.63,0,0,1,0-9.94,47.63,47.63,0,0,1,0,9.94Z" style="fill:#263238"></path><path d="M594,287.51a47.63,47.63,0,0,1,0-9.94,47.63,47.63,0,0,1,0,9.94Z" style="fill:#263238"></path><path d="M628.78,287.51a47.63,47.63,0,0,1,0-9.94,47.63,47.63,0,0,1,0,9.94Z" style="fill:#263238"></path><path d="M663.56,287.51a47.63,47.63,0,0,1,0-9.94,47.63,47.63,0,0,1,0,9.94Z" style="fill:#263238"></path><path d="M698.35,287.51a47.63,47.63,0,0,1,0-9.94,47.63,47.63,0,0,1,0,9.94Z" style="fill:#263238"></path><rect x="37.43" y="87.46" width="181.54" height="7.69" style="fill:#e0e0e0"></rect><rect x="531.25" y="87.44" width="176.55" height="7.69" style="fill:#e0e0e0"></rect><path d="M531.25,276.44c-.15,0-.27-45.79-.27-102.26s.12-102.27.27-102.27.26,45.78.26,102.27S531.39,276.44,531.25,276.44Z" style="fill:#263238"></path><path d="M735.36,287.18c0,.15-161.35.26-360.34.26s-360.38-.11-360.38-.26S176,286.92,375,286.92,735.36,287,735.36,287.18Z" style="fill:#263238"></path></g><g id="freepik--character-2--inject-49"><path d="M511.93,319.68c-6.09,0-13,.28-17,4.89-2,2.28-2.89,5.28-3.66,8.2a170.75,170.75,0,0,0-3.93,19c-.34,2.27-.58,4.78.72,6.67,2,2.85,6.2,2.66,9.62,2.06a172.91,172.91,0,0,0,17.27-4Z" style="fill:#263238"></path><path d="M512,290.6c0,.81-13,37.78-13,37.78l5,.54,8-30.4Z" style="fill:#263238"></path><path d="M500.42,324.81a10.23,10.23,0,0,0-1.32.68,6.89,6.89,0,0,0-2.43,3.13,34.36,34.36,0,0,0-1.49,5.83c-.46,2.24-.92,4.71-1.37,7.31-.88,5.2-1.5,9.94-1.86,13.37a9.14,9.14,0,0,0,.35,4,10.25,10.25,0,0,0,.67,1.32s-.11-.08-.28-.27a4.3,4.3,0,0,1-.58-1,8.9,8.9,0,0,1-.53-4.09c.27-3.47.83-8.22,1.72-13.44.44-2.6.92-5.08,1.41-7.31a31.33,31.33,0,0,1,1.63-5.89,6.8,6.8,0,0,1,2.65-3.15,4.47,4.47,0,0,1,1-.45C500.28,324.81,500.42,324.79,500.42,324.81Z" style="fill:#455a64"></path><path d="M511.12,344.16a5.89,5.89,0,0,1-1.18.59,26.19,26.19,0,0,1-3.41,1.16c-.74.2-1.55.39-2.43.56a8.64,8.64,0,0,1-2.9.13,3.51,3.51,0,0,1-2.66-1.85,6.85,6.85,0,0,1-.61-3.41,67.81,67.81,0,0,1,1.89-11.72c.37-1.47.72-2.64,1-3.45a5.72,5.72,0,0,1,.47-1.23,7.36,7.36,0,0,1-.28,1.29c-.2.82-.49,2-.82,3.48a80.85,80.85,0,0,0-1.73,11.64,6.44,6.44,0,0,0,.54,3.16,3,3,0,0,0,2.29,1.62A8.41,8.41,0,0,0,504,346c.87-.14,1.68-.31,2.41-.48,1.46-.35,2.62-.73,3.42-1A6.55,6.55,0,0,1,511.12,344.16Z" style="fill:#455a64"></path><path d="M500,238.54l3.06,9,1.07,1.51s.93,5,1,6.08a56.59,56.59,0,0,1-1.33,6.66l3.11,5-8.61,3.31s-2.33-4.55-3-5.07a5.65,5.65,0,0,1-1.27-3c-.15-1-1.44-6.91-1.44-6.91s-3.81-6.51-2.22-6.84a5.32,5.32,0,0,1,1.2,0s2.29,4.29,2.91,4.38l.87-.51s-1.8-6.56-1.89-7.78.16-2.09,1.11-2.24c0,0,.71.29.77.6s1.86,7.63,2.26,7.49.21-.8.21-.8-2.38-8.87-2.27-9.38a1.4,1.4,0,0,1,1.43-1.22l1.82,4.87s-.85-4.1-.19-4.83A1.16,1.16,0,0,1,500,238.54Z" style="fill:#ae7461"></path><path d="M498.19,258.46c.07,0,0-.76.31-2a7.7,7.7,0,0,1,2.67-4.14l.12-.09,0-.14-.47-2v0l0,0c-.15-.21-.3-.46-.45-.71a8.18,8.18,0,0,1-1-2.59,2.72,2.72,0,0,1,0-1.21.87.87,0,0,1,.65-.67l-.14-.05c1,1,1.89,1.79,2.5,2.35a6.29,6.29,0,0,0,1,.83,5.41,5.41,0,0,0-.84-1c-.57-.6-1.39-1.45-2.39-2.47l-.07-.06H500a1.23,1.23,0,0,0-1,.92,3.2,3.2,0,0,0-.06,1.41,8.3,8.3,0,0,0,1,2.75q.22.39.48.75l0-.08c.17.7.33,1.38.49,2l.08-.22a7.51,7.51,0,0,0-2.68,4.43,6.44,6.44,0,0,0-.12,1.51C498.14,258.28,498.16,258.46,498.19,258.46Z" style="fill:#6f4439"></path><path d="M498.19,251.18a8.66,8.66,0,0,0-4.9,3.24,29.15,29.15,0,0,0,2.42-1.67A25.86,25.86,0,0,0,498.19,251.18Z" style="fill:#6f4439"></path><path d="M496.82,266.74s8.31,28.94,16,28.37a13.41,13.41,0,0,0,10.79-7l-.11-15.77-4.52.6-3.84,7.15L503.8,261.79Z" style="fill:#ae7461"></path><path d="M536.48,218.53a19.46,19.46,0,0,1,9.12-11l-.36-.28a8.13,8.13,0,0,1,9.65,5.37,26.77,26.77,0,0,1,.57,5,7,7,0,0,0,1.84,4.56c.66.6,1.49,1,2.18,1.56a2.52,2.52,0,0,1,1.07,2.31c-.24,1.12-1.54,1.65-2.69,1.72a9.59,9.59,0,0,0-3.39.36,3.57,3.57,0,1,1-4.93,5.17,4.35,4.35,0,0,1-2.56,4.9,6.21,6.21,0,0,1-5.74-.73,11.27,11.27,0,0,1-3.76-4.62A19.45,19.45,0,0,1,536.48,218.53Z" style="fill:#263238"></path><path d="M507.92,206.19a3.82,3.82,0,0,1,3.17-2.6,11.23,11.23,0,0,1,4.3.4,14.49,14.49,0,0,1-.36-5.74,4.94,4.94,0,0,1,3.67-4,5.93,5.93,0,0,1,4.54,1.65,22.88,22.88,0,0,0,3.92,3.06c3.87,1.94,8.6-.22,12.82.74s7.86,6.08,7.11,10.45c-7.2,2.51-14.46,5.05-20.93,9.09-3.49,2.18-7.26,4.91-11.31,4.15a7.15,7.15,0,0,1-3.83-12C509.32,210.08,507.42,208.27,507.92,206.19Z" style="fill:#263238"></path><path d="M515.67,217.91c.62-6,7.31-11.67,13.24-10.79l19.17,4.46-3.4,2.69L542,253h0s.86,14.34-10,13.16c-9.71-1.06-8.75-11.32-8.75-11.33l.74-6.64s-8-1.49-9.16-11.52C514.3,231.69,515,224.53,515.67,217.91Z" style="fill:#ae7461"></path><path d="M517.72,227.3a1.27,1.27,0,0,0,1.18,1.34,1.21,1.21,0,0,0,1.36-1.09,1.28,1.28,0,0,0-1.17-1.35A1.23,1.23,0,0,0,517.72,227.3Z" style="fill:#263238"></path><path d="M517.21,223.28c.15.18,1.15-.5,2.53-.44s2.35.79,2.51.63-.08-.38-.5-.72a3.49,3.49,0,0,0-2-.71,3.42,3.42,0,0,0-2,.56C517.29,222.91,517.14,223.2,517.21,223.28Z" style="fill:#263238"></path><path d="M528.94,228.22a1.29,1.29,0,0,0,1.18,1.34,1.23,1.23,0,0,0,1.37-1.1,1.27,1.27,0,0,0-1.18-1.34A1.23,1.23,0,0,0,528.94,228.22Z" style="fill:#263238"></path><path d="M529.86,224c.15.17,1.15-.51,2.52-.45s2.36.79,2.51.63-.07-.38-.5-.72a3.61,3.61,0,0,0-2-.71,3.37,3.37,0,0,0-2,.57C529.94,223.64,529.78,223.94,529.86,224Z" style="fill:#263238"></path><path d="M525.31,234.5a11.31,11.31,0,0,0-2.22-.45c-.35,0-.68-.12-.73-.32s.08-.54.26-.88l1.11-2.21c.42-.81,2.49-5.37,2.53-5.82a36.3,36.3,0,0,0-3.08,5.62l-1.07,2.23a1.51,1.51,0,0,0-.22,1.16.86.86,0,0,0,.56.46,3,3,0,0,0,.6.1A10.18,10.18,0,0,0,525.31,234.5Z" style="fill:#263238"></path><path d="M523.85,248.24a25.35,25.35,0,0,0,13.49-3s-3.69,6.82-13.63,5.48Z" style="fill:#6f4439"></path><path d="M529.43,234.13c-.22,0-.29,1.47-1.61,2.47s-2.9.78-2.92,1,.34.3,1,.35a3.7,3.7,0,0,0,2.44-.74,3.24,3.24,0,0,0,1.25-2.08C529.68,234.5,529.53,234.12,529.43,234.13Z" style="fill:#263238"></path><path d="M530.5,219.45c.14.43,1.34.16,2.77.32s2.6.61,2.77.21c.07-.19-.15-.59-.63-1a3.92,3.92,0,0,0-2.09-.85,3.61,3.61,0,0,0-2.13.44C530.69,218.89,530.44,219.24,530.5,219.45Z" style="fill:#263238"></path><path d="M517.36,218.55c.21.4,1.24.13,2.44.25s2.16.5,2.44.14c.12-.17,0-.56-.39-1a3.22,3.22,0,0,0-3.94-.31C517.45,218,517.27,218.36,517.36,218.55Z" style="fill:#263238"></path><path d="M516.76,212.29a14.56,14.56,0,0,1,9.2-6.48,24,24,0,0,1,11.45.38,70.88,70.88,0,0,1,10.83,4,3.81,3.81,0,0,1,2.16,1.67,3.69,3.69,0,0,1,.15,1.87l-1.41,16L547.59,233c-1.73,0-3.15-1.36-4.23-2.7a23.8,23.8,0,0,1-5.1-16.93,7.66,7.66,0,0,0-1,2.29,2.67,2.67,0,0,1-1.64,1.77c-1.37.32-2.45-1.25-2.62-2.64s.13-2.9-.51-4.14a16.07,16.07,0,0,1-5.47,4.66c-1,.52-2.33.9-3.2.17a2.18,2.18,0,0,1-.52-2.23,6.5,6.5,0,0,1,1.22-2.07,12.59,12.59,0,0,1-6.29,3.48,1.77,1.77,0,0,1-1.53-.18C516.09,213.92,516.37,213,516.76,212.29Z" style="fill:#263238"></path><path d="M543,227.83c.16-.06,6.2-1.52,5.72,4.56s-6.49,4.33-6.48,4.15S543,227.83,543,227.83Z" style="fill:#ae7461"></path><path d="M544.29,234.39s.1.08.27.18a1.1,1.1,0,0,0,.79.08,2.63,2.63,0,0,0,1.4-2.25,3.52,3.52,0,0,0-.18-1.54,1.24,1.24,0,0,0-.73-.88.55.55,0,0,0-.65.24c-.09.17-.06.29-.1.3s-.12-.11-.05-.36a.69.69,0,0,1,.27-.36.81.81,0,0,1,.6-.11,1.52,1.52,0,0,1,1,1,3.59,3.59,0,0,1,.23,1.72,2.77,2.77,0,0,1-1.75,2.5,1.13,1.13,0,0,1-1-.24C544.28,234.54,544.26,234.4,544.29,234.39Z" style="fill:#6f4439"></path><path d="M539.54,212.64a1.69,1.69,0,0,0,.11.36c.08.24.21.58.4,1a19.62,19.62,0,0,0,2,3.45,19.82,19.82,0,0,0,1.75,2.13c.35.35.7.72,1.1,1.07a3,3,0,0,0,1.5.77,1.83,1.83,0,0,0,1.63-.69,3.41,3.41,0,0,0,.71-1.7c.13-1.27-.37-2.48-.44-3.72a3.89,3.89,0,0,1,0-.48l-.29.09,2.35,2.81,1.12,1.33a3.44,3.44,0,0,0,1.33,1.08,1.3,1.3,0,0,0,.89,0,1.45,1.45,0,0,0,.62-.58,3.78,3.78,0,0,0,.43-1.48,10.88,10.88,0,0,0,0-2.68,10.65,10.65,0,0,0-1.17-3.69,8.41,8.41,0,0,0-.55-.89,1.57,1.57,0,0,0-.23-.29s.27.43.67,1.24a11,11,0,0,1,1,6.28,3.41,3.41,0,0,1-.41,1.36,1,1,0,0,1-1.17.48,3.25,3.25,0,0,1-1.21-1l-1.1-1.33-2.33-2.8-.28-.33v.42a2.92,2.92,0,0,0,0,.51c.08,1.31.57,2.51.44,3.66a3,3,0,0,1-.63,1.54,1.5,1.5,0,0,1-1.36.6,2.74,2.74,0,0,1-1.34-.69c-.39-.34-.75-.7-1.1-1a20.9,20.9,0,0,1-1.76-2.07,22.11,22.11,0,0,1-2.05-3.37c-.21-.42-.36-.75-.46-1A2.11,2.11,0,0,0,539.54,212.64Z" style="fill:#455a64"></path><path d="M528.37,444.4v25.32l-33.95.08c.18-3,17.71-9.09,17.71-9.09l-.71-16.23Z" style="fill:#FF725E"></path><path d="M522.3,460.94a1.3,1.3,0,0,1,1,1.47,1.33,1.33,0,0,1-2.57-.66,1.41,1.41,0,0,1,1.73-.77" style="fill:#fff"></path><path d="M528.36,469.72l-.11-2.55-32.51,1s-1.51.61-1.33,1.6Z" style="fill:#263238"></path><path d="M512.07,460.76c0,.15.84.22,1.66.71s1.25,1.14,1.4,1.08S515,461.6,514,461,512,460.62,512.07,460.76Z" style="fill:#263238"></path><path d="M508.18,462.18c0,.15.68.41,1.25,1.06s.73,1.33.9,1.33.26-.88-.46-1.68S508.19,462,508.18,462.18Z" style="fill:#263238"></path><path d="M506.13,466.13c.15,0,.38-.74-.05-1.58s-1.21-1.17-1.28-1.05.41.58.76,1.28S506,466.11,506.13,466.13Z" style="fill:#263238"></path><path d="M512,457.55c.07.14.83-.08,1.77,0s1.67.33,1.75.2-.62-.68-1.72-.73S511.93,457.43,512,457.55Z" style="fill:#263238"></path><path d="M512.64,453.09a3.3,3.3,0,0,0,1.7,0,7.77,7.77,0,0,0,1.78-.51,7.27,7.27,0,0,0,1-.48,2.25,2.25,0,0,0,.51-.37.62.62,0,0,0,.07-.82.91.91,0,0,0-.72-.35,2.38,2.38,0,0,0-.64.08,6.58,6.58,0,0,0-1.06.34,6.14,6.14,0,0,0-1.56,1c-.78.68-1.05,1.25-1,1.28s.45-.43,1.25-1a6.54,6.54,0,0,1,2.49-1.08c.36-.09.66-.09.76.06s0,.08,0,.18a1.88,1.88,0,0,1-.38.27,8.9,8.9,0,0,1-2.53,1.06A15.34,15.34,0,0,0,512.64,453.09Z" style="fill:#263238"></path><path d="M512.86,453.31c.06,0,.38-.52.44-1.52a4.92,4.92,0,0,0-.24-1.73,5,5,0,0,0-.44-.95,1.41,1.41,0,0,0-1.09-.8.82.82,0,0,0-.71.44,2.18,2.18,0,0,0-.17.58,3.49,3.49,0,0,0,0,1.07,3.53,3.53,0,0,0,.74,1.62c.67.82,1.36,1,1.37,1s-.52-.37-1-1.16a3.47,3.47,0,0,1-.55-1.48,3.11,3.11,0,0,1,0-.91c.05-.34.18-.61.32-.57s.46.25.6.51a5.67,5.67,0,0,1,.42.86,5.3,5.3,0,0,1,.34,1.57C512.94,452.72,512.77,453.29,512.86,453.31Z" style="fill:#263238"></path><path d="M560.67,436.37l14.07,17L551.22,471c-1.55-2.12,7.24-15.27,7.24-15.27L549,445.2Z" style="fill:#FF725E"></path><path d="M566.55,450.39a1.18,1.18,0,0,1,1.48.48,1.09,1.09,0,0,1-.58,1.41,1.25,1.25,0,0,1-1.57-.52,1.17,1.17,0,0,1,.78-1.41" style="fill:#fff"></path><path d="M574.74,453.36l-1.49-1.66-22,17.51s-.71,1.2,0,1.77Z" style="fill:#263238"></path><path d="M558.43,455.89c.09.1.7-.28,1.54-.38s1.51.12,1.58,0-.6-.59-1.62-.46S558.32,455.82,558.43,455.89Z" style="fill:#263238"></path><path d="M556.56,458.88c.06.12.7-.08,1.46.06s1.25.52,1.36.43-.3-.73-1.25-.89S556.48,458.78,556.56,458.88Z" style="fill:#263238"></path><path d="M557.26,462.57c.12-.06-.15-.69-.92-1s-1.49-.16-1.46,0,.6.17,1.23.46S557.13,462.65,557.26,462.57Z" style="fill:#263238"></path><path d="M556.59,453.47c.12.06.53-.48,1.21-.92s1.34-.65,1.33-.78-.81-.13-1.6.4S556.46,453.43,556.59,453.47Z" style="fill:#263238"></path><path d="M554.59,450.34a3,3,0,0,0,1.17-.89,6,6,0,0,0,1-1.26,6.41,6.41,0,0,0,.41-.83,1.62,1.62,0,0,0,.15-.51.55.55,0,0,0-.41-.59.89.89,0,0,0-.7.14,2,2,0,0,0-.39.39,4.76,4.76,0,0,0-.55.77,5.29,5.29,0,0,0-.55,1.45c-.17.86,0,1.39,0,1.38s.07-.53.31-1.32a6,6,0,0,1,.61-1.31,5.5,5.5,0,0,1,.52-.7c.2-.24.41-.4.56-.35s.07,0,.07.14a1.07,1.07,0,0,1-.11.37,6.29,6.29,0,0,1-.35.79,7.61,7.61,0,0,1-.82,1.24C555,449.92,554.54,450.29,554.59,450.34Z" style="fill:#263238"></path><path d="M554.86,450.37c.06,0,0-.55-.54-1.25a4.36,4.36,0,0,0-1.12-1,4.1,4.1,0,0,0-.84-.41,1.27,1.27,0,0,0-1.2,0,.63.63,0,0,0-.24.66,1.61,1.61,0,0,0,.2.48,3.14,3.14,0,0,0,.59.71,3.28,3.28,0,0,0,1.42.71,2.07,2.07,0,0,0,1.48-.08,12.31,12.31,0,0,1-1.37-.24,2.94,2.94,0,0,1-1.69-1.34c-.15-.25-.2-.5-.09-.54a.9.9,0,0,1,.7,0,5,5,0,0,1,.77.35,4.55,4.55,0,0,1,1.11.89C554.59,449.93,554.79,450.41,554.86,450.37Z" style="fill:#263238"></path><path d="M510.76,322.18l1.82,12.2s-12.26,51-13.54,59.86,11.4,65.55,11.4,65.55l19.5-1.62-5.87-59.62,17.25-37.65c.52-.64,1.85-5.88,3.54-9.36,2.47-5.1,3.31-11.4,4.36-15l-.11-5.19-.19-3.38Z" style="fill:#263238"></path><polygon points="536.29 361.72 537.03 402.55 568.49 443.53 551.22 455.61 510.17 409.61 508.91 355.65 536.29 361.72" style="fill:#263238"></polygon><path d="M542.39,358.06a1.09,1.09,0,0,1-.08.26l-.3.73c-.28.68-.68,1.62-1.18,2.81l-4.46,10.26c-1.9,4.33-4.18,9.48-6.74,15.17-1.29,2.85-2.64,5.84-4.11,8.91-.18.38-.37.77-.57,1.15a10.32,10.32,0,0,1-.65,1.2c-.17.13-.11.68-.12,1.08s0,.86.05,1.3c.11,1.74.26,3.52.42,5.31,1.35,14.35,2.86,27.33,3.88,36.72.51,4.67.92,8.46,1.22,11.13.13,1.28.23,2.29.31,3l.06.79a.79.79,0,0,1,0,.27s0-.08-.06-.26-.07-.46-.12-.78c-.1-.73-.23-1.74-.4-3-.34-2.66-.81-6.45-1.39-11.11-1.11-9.38-2.67-22.34-4-36.71-.16-1.8-.31-3.58-.41-5.33q0-.66-.06-1.32c0-.23,0-.45,0-.67a1.67,1.67,0,0,1,0-.37.34.34,0,0,1,.06-.17s0-.1.09-.05,0,0,0-.06l.07-.13a11.49,11.49,0,0,0,.58-1.07c.19-.38.38-.76.56-1.14,1.47-3.06,2.83-6.05,4.13-8.89L536,372c1.94-4.28,3.51-7.75,4.61-10.2l1.28-2.76.34-.71C542.34,358.14,542.39,358.06,542.39,358.06Z" style="fill:#455a64"></path><path d="M510.82,341.78c.14,0-1,5.64-2.56,12.52s-2.93,12.44-3.07,12.4,1-5.63,2.56-12.51S510.68,341.75,510.82,341.78Z" style="fill:#455a64"></path><path d="M542,250s9.68,11,10.15,21.15c.24,5.13-.51,53.55-.51,53.55l.56,17.78-45-1,2.6-22.57L515.23,280,522,256.09l1.36-3.3Z" style="fill:#455a64"></path><path d="M544.65,254.06a12.15,12.15,0,0,0-7.71-3c-5.08-.28-8.67,1.45-12.63,8.06-2.81,4.68-11.5,29.8-11.5,29.8l.2,8s11.47-43.34,22.53-44.27,16.33,16.12,16.33,16.12S550.65,259.88,544.65,254.06Z" style="fill:#263238"></path><path d="M548.35,269.81c0,.45,1,35.27-.5,39.23s-4.23,7-9.17,6.63-25.21-9.3-25.21-9.3l-3.72-8.85L533,298.64l-3.34-29.11Z" style="fill:#ae7461"></path><path d="M514.08,299.07l-.33-9.38s-4.68.85-5.25,2.33-.81,2.8-1.38,4.59.79,6.34,1.36,7.58,10.43,4.69,10.43,4.69l1.61-6.46Z" style="fill:#ae7461"></path><path d="M538,304.11a18,18,0,0,0-2.35-3.19,19.79,19.79,0,0,0-3.28-2.25,5.9,5.9,0,0,1,3.64,1.87A5.72,5.72,0,0,1,538,304.11Z" style="fill:#6f4439"></path><path d="M550.9,287.33l-25.87,1s.1-19.37.77-23.89,8.07-14.53,16.21-10.07a12.16,12.16,0,0,1,4.85,5.58C547.56,261.54,550.9,287.33,550.9,287.33Z" style="fill:#455a64"></path><path d="M525.83,264.71a13.28,13.28,0,0,1,.93-3.56,16,16,0,0,1,2-3.44,9.51,9.51,0,0,1,3.58-3.19,10.49,10.49,0,0,1,4.72-.92,19.58,19.58,0,0,1,3.95.53,15.08,15.08,0,0,1,2.58.81c.58.25.88.44.9.41s-.06-.06-.2-.16a6.08,6.08,0,0,0-.64-.39,12.6,12.6,0,0,0-2.57-.94,19.56,19.56,0,0,0-4-.62,10.67,10.67,0,0,0-4.9.93,9.6,9.6,0,0,0-3.69,3.33,15.59,15.59,0,0,0-2,3.55,10.59,10.59,0,0,0-.67,2.65c0,.33,0,.58,0,.75S525.81,264.71,525.83,264.71Z" style="fill:#263238"></path><path d="M524.35,272.76a1.71,1.71,0,0,0,0,.3c0,.24,0,.53,0,.87,0,.82,0,1.91.09,3.26.1,2.83.25,6.7.41,11.16v.18H525l5.14-.2,14.65-.63,4.44-.23,1.21-.09a2.1,2.1,0,0,0,.42-.05,2,2,0,0,0-.42,0h-1.21l-4.45.11-14.66.52-5.14.2.2.18c-.22-4.45-.42-8.32-.56-11.15-.08-1.35-.14-2.44-.19-3.25,0-.35-.05-.63-.07-.87A1,1,0,0,0,524.35,272.76Z" style="fill:#263238"></path><path d="M513.75,289.19a4.77,4.77,0,0,1-1.55.73,6.12,6.12,0,0,0-3.27,2.08,9.36,9.36,0,0,0-1.45,3.69,5.08,5.08,0,0,1-.5,1.63,6.17,6.17,0,0,1,.14-1.7,8.23,8.23,0,0,1,1.39-3.93,4.31,4.31,0,0,1,1.81-1.5,12.26,12.26,0,0,1,1.77-.62A6.29,6.29,0,0,1,513.75,289.19Z" style="fill:#6f4439"></path></g><g id="freepik--character-1--inject-49"><path d="M243.65,231.29a12,12,0,0,0-1.88-15.6l-9.41-4.46c-1.92-5.52-8.91-3.71-11.18-2.13a9.23,9.23,0,0,0-3.55,7.18c-.07,1.66.14,3.47-.79,4.85s-2.47,1.78-3.67,2.75a6,6,0,0,0-.48,8.44,5.52,5.52,0,0,0-1.2,9.79,10.34,10.34,0,0,0-1.9,5.4,6,6,0,0,0,2.35,5,4.27,4.27,0,0,0,5.33-.3,5.89,5.89,0,0,0,11,2.57,6.88,6.88,0,0,0,11.6-5.87c1.1,1.45,3.46,1.4,4.89.28a7.38,7.38,0,0,0,2.4-4.75A16.78,16.78,0,0,0,243.65,231.29Z" style="fill:#263238"></path><path d="M233.15,210.88a2.8,2.8,0,0,0-3-.44,7,7,0,0,0-2.49,2,17.55,17.55,0,0,0-3.3,5.29l0,.08a5.62,5.62,0,0,0,3.33,7.07c.36.14.71.3,1.06.47a82.05,82.05,0,0,0,5.82-14.29Z" style="fill:#455a64"></path><path d="M227,227.45a5.5,5.5,0,0,1,.24-7,3.67,3.67,0,0,1,.22-4.45,10.83,10.83,0,0,1,3.9-2.78,7.36,7.36,0,0,1,8.4-5.68c1.81-2.88,5.86-3.46,9.15-2.62a8.89,8.89,0,0,0,2.43.44,13.82,13.82,0,0,0,1.8-.31c3.3-.57,6.67,1.65,8.06,4.69a6.6,6.6,0,0,0,.76,1.41,8.34,8.34,0,0,0,1.68,1.25,5.3,5.3,0,0,1,2.17,3.84c.09,1.28-.27,2.66.32,3.81.29.57.79,1,1,1.63.67,1.75-1.22,3.62-.8,5.45.09.37.27.71.39,1.07a3.23,3.23,0,0,1-.12,2.29,4.6,4.6,0,0,0-.66,1.67,5.82,5.82,0,0,0,.31,1.33c.27,1.08-1.95,5.39-2.87,6l-28.27,1.25a5.28,5.28,0,0,1-4.25-4.41,2,2,0,0,0-.3-1,2.27,2.27,0,0,0-.79-.48c-1.86-.91-2.17-3.4-2.05-5.47a2.49,2.49,0,0,0,0-.86A3.12,3.12,0,0,0,227,227.45Z" style="fill:#263238"></path><path d="M235.11,227.2a15.13,15.13,0,0,1,7.56-13.48,18.57,18.57,0,0,1,7.16-2,11.47,11.47,0,0,1,6.72,1.16c1.57.31,7.47,5.34,8,11,.55,6.29,1,12.75.48,17.49-.84,8.35-8.82,9.64-8.82,9.64-.09-.91,1.42,18.12,1.42,18.12L238,262.22Z" style="fill:#ffbf9d"></path><path d="M251.4,241.66a1.87,1.87,0,0,1,.55-1.19,1.89,1.89,0,0,1,2.28-.31,2.11,2.11,0,0,1,.83,2.16h0c-.35.56-.59,1.12-1.25,1.23l-.31,0a2,2,0,0,1-1.43-.44A1.84,1.84,0,0,1,251.4,241.66Z" style="fill:#ff9a6c"></path><path d="M261.75,231.94a1.22,1.22,0,0,1-1.14,1.25,1.16,1.16,0,0,1-1.28-1.06,1.22,1.22,0,0,1,1.14-1.26A1.17,1.17,0,0,1,261.75,231.94Z" style="fill:#263238"></path><path d="M262.43,227.51c-.14.17-1.08-.49-2.38-.46s-2.25.72-2.39.56.07-.36.48-.67a3.23,3.23,0,0,1,1.91-.64,3.19,3.19,0,0,1,1.91.56C262.36,227.16,262.51,227.44,262.43,227.51Z" style="fill:#263238"></path><path d="M255.05,238.06a9,9,0,0,1,2.11-.43c.33,0,.65-.12.7-.35a1.73,1.73,0,0,0-.25-1c-.33-.8-.68-1.64-1.05-2.51-1.45-3.58-1.93-5-1.78-5.06s.85,1.27,2.31,4.85l1,2.53a1.89,1.89,0,0,1,.21,1.3.81.81,0,0,1-.54.5,2.66,2.66,0,0,1-.56.1A8.19,8.19,0,0,1,255.05,238.06Z" style="fill:#263238"></path><path d="M256.15,251a24.14,24.14,0,0,1-12.79-3.07s3.53,6.58,13,5.47Z" style="fill:#ff9a6c"></path><path d="M262,222.93c-.23.37-1.36.15-2.67.29s-2.38.52-2.68.2c-.13-.15,0-.5.45-.87a4,4,0,0,1,2.1-.81,4,4,0,0,1,2.21.41C261.92,222.43,262.12,222.76,262,222.93Z" style="fill:#263238"></path><path d="M248.16,232.3a1.21,1.21,0,0,0,1.24,1.15,1.15,1.15,0,0,0,1.18-1.17,1.21,1.21,0,0,0-1.24-1.15A1.16,1.16,0,0,0,248.16,232.3Z" style="fill:#263238"></path><path d="M244.59,228.39c.16.15,1-.59,2.34-.66s2.3.51,2.43.34-.11-.35-.54-.63a3.42,3.42,0,0,0-2-.47,3.26,3.26,0,0,0-1.85.73C244.63,228,244.51,228.32,244.59,228.39Z" style="fill:#263238"></path><path d="M242.81,224c.36.37,1.64-.11,3.21-.23s2.92.08,3.2-.34c.13-.21-.11-.58-.71-.91a5,5,0,0,0-2.65-.47,4.81,4.81,0,0,0-2.52.94C242.81,223.44,242.65,223.84,242.81,224Z" style="fill:#263238"></path><path d="M236.85,236.13c0-.71-.87-2.35-1.57-2.44-1.87-.24-5.21,0-5.13,4.7.12,6.45,6.57,5,6.58,4.82S236.91,238.56,236.85,236.13Z" style="fill:#ffbf9d"></path><path d="M234.91,240.89s-.12.08-.3.17a1.12,1.12,0,0,1-.84,0,2.77,2.77,0,0,1-1.33-2.47,3.62,3.62,0,0,1,.28-1.61,1.31,1.31,0,0,1,.83-.88.56.56,0,0,1,.67.29c.09.18.05.31.09.32s.13-.11.08-.37a.7.7,0,0,0-.27-.4.8.8,0,0,0-.62-.15,1.56,1.56,0,0,0-1.16,1,3.87,3.87,0,0,0-.35,1.8,2.92,2.92,0,0,0,1.69,2.76,1.22,1.22,0,0,0,1-.19C234.9,241,234.93,240.9,234.91,240.89Z" style="fill:#ff9a6c"></path><path d="M266,223.94a3.76,3.76,0,0,1-2.14-3.4c-.86.27-1.76-.82-2.28-1.55s-1.15-1.1-1.14-2a1,1,0,0,0-.08-.52,1.05,1.05,0,0,0-.71-.39,4.34,4.34,0,0,1-2.92-2.93,9.14,9.14,0,0,1-4.4.84,3.5,3.5,0,0,1-5.92-.11,3.13,3.13,0,0,1-2.05,1.59,9.22,9.22,0,0,1-2.67.22,3.71,3.71,0,0,1-2.33,4.25c-.23.07-.49.15-.59.37s0,.48.11.71a2.92,2.92,0,0,1-1.85,3.76,2.17,2.17,0,0,1-.11,3.4c-.23.15-.54.33-.49.6a.52.52,0,0,0,.15.27,4.3,4.3,0,0,1,1.07,2.11,1.56,1.56,0,0,1-1.24,1.75,2.11,2.11,0,0,1,.86,1.39c0,.56-.53,1.15-1.06,1-.22-.08-3.45-.63-3.6-.82-1.88-2.43.34-5.22.45-8.3a20.09,20.09,0,0,1,2.56-8.78,14.51,14.51,0,0,1,2.22-3.16,19,19,0,0,1,3.47-2.7,17.88,17.88,0,0,1,5.11-2.6c3.46-.91,7.11.27,10.39,1.68a15.29,15.29,0,0,1,3.56,2,13.82,13.82,0,0,1,3.05,3.78,17.19,17.19,0,0,1,2.5,6.54" style="fill:#263238"></path><path d="M267.16,221.65a2.42,2.42,0,0,0-.37-.68c-.14-.21-.34-.46-.53-.77a2.93,2.93,0,0,1-.39-1.2,9.22,9.22,0,0,1,0-1.59,7,7,0,0,0-.1-1.91,5.23,5.23,0,0,0-.9-2,5.3,5.3,0,0,0-.82-.9,8.64,8.64,0,0,0-1-.73,3.79,3.79,0,0,1-1-.82,5.4,5.4,0,0,1-.64-1.19,8.26,8.26,0,0,0-1.63-2.45,8.56,8.56,0,0,0-2.55-1.86,7.46,7.46,0,0,0-1.57-.54,6.86,6.86,0,0,0-1.7-.15,8.36,8.36,0,0,0-.86.09c-.29.05-.57.12-.86.18a4.15,4.15,0,0,1-1.72,0c-.58-.1-1.15-.29-1.75-.43a12.55,12.55,0,0,0-1.84-.27,10.88,10.88,0,0,0-1.89,0,10.33,10.33,0,0,0-1.88.4,6.43,6.43,0,0,0-3.19,2.23l-.23.32.1,0a7.48,7.48,0,0,0-8.51,5.77l0-.07a21,21,0,0,0-2.23,1.25,6.79,6.79,0,0,0-1.8,1.7,4.36,4.36,0,0,0-.78,2.25,3,3,0,0,0,.67,2.16v-.1a5.34,5.34,0,0,0-1.39,3.35,5.4,5.4,0,0,0,.76,3.18,4.72,4.72,0,0,0,.44.63c.16.19.33.37.46.56a1.54,1.54,0,0,1,.25.63,5,5,0,0,1,0,.67,10.06,10.06,0,0,0,.13,2.44,5.29,5.29,0,0,0,.68,1.85,3.21,3.21,0,0,0,1,1c.33.21.63.29.8.4s.23.2.24.19a.75.75,0,0,0-.23-.21c-.17-.12-.46-.21-.79-.42a3.25,3.25,0,0,1-1-1,5.19,5.19,0,0,1-.65-1.82,10.53,10.53,0,0,1-.11-2.43,4,4,0,0,0,0-.69,1.46,1.46,0,0,0-.26-.68c-.14-.2-.3-.38-.46-.57a4.55,4.55,0,0,1-.43-.62,5.27,5.27,0,0,1-.72-3.1,5.16,5.16,0,0,1,1.36-3.25l0-.06,0,0a2.9,2.9,0,0,1-.62-2.05,4.23,4.23,0,0,1,.75-2.16,6.62,6.62,0,0,1,1.76-1.65,21.38,21.38,0,0,1,2.21-1.24l0,0v0a7,7,0,0,1,2.92-4.37,7.06,7.06,0,0,1,5.37-1.24h.06l0-.05.23-.32a6.17,6.17,0,0,1,3.09-2.15,9,9,0,0,1,1.84-.4,11.57,11.57,0,0,1,1.86,0,11,11,0,0,1,1.81.27c.58.13,1.16.32,1.76.42a4.55,4.55,0,0,0,.9.07,5.16,5.16,0,0,0,.89-.12l.85-.18a8,8,0,0,1,.84-.09,6.46,6.46,0,0,1,1.65.14,7.75,7.75,0,0,1,1.54.52,8.57,8.57,0,0,1,4.11,4.22,5.87,5.87,0,0,0,.67,1.23,4.32,4.32,0,0,0,1,.84,8.89,8.89,0,0,1,1,.71,5.43,5.43,0,0,1,.8.87,5.25,5.25,0,0,1,.9,2,7.18,7.18,0,0,1,.11,1.88,9.38,9.38,0,0,0,0,1.61,3,3,0,0,0,.42,1.22c.2.32.4.56.55.76a3.91,3.91,0,0,1,.31.49A1.32,1.32,0,0,0,267.16,221.65Z" style="fill:#455a64"></path><path d="M251.16,240.46c.15-.11.79,1,2.16,1.17s2.43-.58,2.53-.44-.13.36-.6.66a3.1,3.1,0,0,1-2.08.43,2.69,2.69,0,0,1-1.74-1C251.12,240.83,251.08,240.49,251.16,240.46Z" style="fill:#263238"></path><path d="M228.47,253.73s-.05,0-.15.1a3,3,0,0,1-.48.2,4.21,4.21,0,0,1-2,.17,4.28,4.28,0,0,1-2.73-1.54,4.6,4.6,0,0,1-.88-4l.2.26a3.77,3.77,0,0,1-3.34-3.09,8.88,8.88,0,0,1,.88-5.23l.12.32a5.85,5.85,0,0,1-.74-10.16l0,.41a6.06,6.06,0,0,1,1.75-10.25l-.11.27a4.55,4.55,0,0,1,.08-3.85,4.22,4.22,0,0,1,2.13-2A4,4,0,0,1,225,215a1.71,1.71,0,0,1,.64.09,5.3,5.3,0,0,0-2.36.47,4.08,4.08,0,0,0-1.94,1.94,4.24,4.24,0,0,0,0,3.54l.09.19-.2.08a5.61,5.61,0,0,0-1.55,9.49l.25.22-.28.19a5.54,5.54,0,0,0-2.36,4.13,5.46,5.46,0,0,0,3,5.15l.22.1-.1.22a8.55,8.55,0,0,0-.89,4.94,3.36,3.36,0,0,0,2.89,2.78h.27l-.07.25a4.24,4.24,0,0,0,.73,3.71,4.1,4.1,0,0,0,2.52,1.51,4.49,4.49,0,0,0,1.92-.05C228.24,253.81,228.45,253.71,228.47,253.73Z" style="fill:#455a64"></path><path d="M239.19,219.41c0,.05-.61.37-1.7.16a3.48,3.48,0,0,1-1.68-.9,3.6,3.6,0,0,1-1-2.1,3.81,3.81,0,0,1,0-1.12l.31.3a3.35,3.35,0,0,1-3.2-1.14c-.57-.68-.61-1.25-.56-1.25s.22.47.8,1a3.24,3.24,0,0,0,2.85.86l.37-.08-.06.38a3.24,3.24,0,0,0,.85,2.78,3.46,3.46,0,0,0,1.43.88A9.73,9.73,0,0,0,239.19,219.41Z" style="fill:#455a64"></path><path d="M252.26,205.12s.45-.24,1.22,0a2.29,2.29,0,0,1,1.14.84,2.55,2.55,0,0,1,.45,1.76l-.27-.28a3.2,3.2,0,0,1,3.2,4.63c-.54,1.08-1.31,1.33-1.32,1.28a5.41,5.41,0,0,0,1-1.43,3.1,3.1,0,0,0,.15-1.79,3,3,0,0,0-3-2.2l-.31,0,.05-.3a2.22,2.22,0,0,0-.31-1.46,2.17,2.17,0,0,0-.91-.79A7,7,0,0,0,252.26,205.12Z" style="fill:#455a64"></path><path d="M245,220.18s-.14-.21-.17-.63a2.75,2.75,0,0,1,.5-1.71,2.84,2.84,0,0,1,2.37-1.18,2.27,2.27,0,0,1,1.55.57,1.19,1.19,0,0,1,.4.9,1.09,1.09,0,0,1-.56.87,2.18,2.18,0,0,1-1.78.07,3.34,3.34,0,0,1-1.35-.88,3.08,3.08,0,0,1-.83-2.52,3.18,3.18,0,0,1,.72-1.62c.29-.32.5-.42.51-.4a4.11,4.11,0,0,0-.86,2.06,2.81,2.81,0,0,0,.8,2.15,3,3,0,0,0,1.17.73,1.73,1.73,0,0,0,1.36,0,.55.55,0,0,0,.07-1,1.82,1.82,0,0,0-1.21-.46,2.51,2.51,0,0,0-2.07.92,2.88,2.88,0,0,0-.59,1.49C245,220,245,220.17,245,220.18Z" style="fill:#263238"></path><path d="M266.2,228.5a2.66,2.66,0,0,0,1.18-.51,1.56,1.56,0,0,0,.57-1.21,1.66,1.66,0,0,0-.83-1.42l-.29-.17.25-.22a4,4,0,0,0,1.44-2.38,2.28,2.28,0,0,0-.27-1.38,3.05,3.05,0,0,0-1-.93,6.5,6.5,0,0,1-1.09-.85,4.12,4.12,0,0,1-.68-1,2.84,2.84,0,0,1-.15-2.34,5.45,5.45,0,0,0,.49,2.17,3.91,3.91,0,0,0,1.7,1.64,3.53,3.53,0,0,1,1.16,1.07,2.7,2.7,0,0,1,.34,1.7,4.26,4.26,0,0,1-1.63,2.68l0-.39a2,2,0,0,1,1,1.85,1.85,1.85,0,0,1-.79,1.43C266.77,228.75,266.17,228.53,266.2,228.5Z" style="fill:#263238"></path><path d="M214.54,218.88s.1,0,.22-.13a.82.82,0,0,0,.28-.62.71.71,0,0,0-.59-.75,1.12,1.12,0,0,0-1.14.62,1.79,1.79,0,0,0,.22,1.67,2.15,2.15,0,0,0,1.71.93,1.49,1.49,0,0,0,1.47-1.31,20.55,20.55,0,0,0,.18-2.6,12.65,12.65,0,0,1,1.21-5.07,6.85,6.85,0,0,1,3-3.05,5.11,5.11,0,0,1,2.81-.59,2.26,2.26,0,0,1,1,.27c0,.05-.38-.06-1-.07a5.25,5.25,0,0,0-2.63.72,6.7,6.7,0,0,0-2.72,2.94,12.78,12.78,0,0,0-1.11,4.88,17.74,17.74,0,0,1-.21,2.7,2.28,2.28,0,0,1-.69,1.21,1.82,1.82,0,0,1-1.28.45,2.54,2.54,0,0,1-2.06-1.18,2.13,2.13,0,0,1-.19-2.06,1.4,1.4,0,0,1,1.53-.74,1,1,0,0,1,.61.43,1,1,0,0,1,.12.61.86.86,0,0,1-.42.69C214.65,218.92,214.54,218.89,214.54,218.88Z" style="fill:#263238"></path><path d="M262.35,268.33c.11.38,7,12.24,7.86,18.31.83,6.26.93,22.27.93,22.27l-.27,12.93,5.41,11.76-39.9-2.5.74-30.14-7.86-31.61,7.32-11.25s15.1,0,16.19.49l6.13,5.29Z" style="fill:#ebebeb"></path><path d="M236.72,325.67s19.54-25.75,22.5-33.94c4.32-11.93,5.17-24.37-2-30.55s-16.61-2.65-20.48.71-6.46,6-6.46,6l4.43,3s6.83-14.48,17-11c6.48,2.25,9.18,8.13,8.47,14.14s.09,21.34-23.41,43.64l-4.06,6.19Z" style="fill:#263238"></path><polygon points="301.86 284.01 299.87 282.26 289.13 277.47 266.78 311.08 276.28 319.09 278.52 319.65 301.86 284.01" style="fill:#455a64"></polygon><polygon points="271.04 313.41 295.41 279.04 292.92 277.47 283.9 274.82 271.04 294.12 271.04 313.41" style="fill:#263238"></polygon><path d="M298.41,282.57c.12.09-4.72,7.34-10.8,16.19s-11.11,16-11.23,15.9,4.72-7.33,10.8-16.19S298.29,282.49,298.41,282.57Z" style="fill:#263238"></path><path d="M292,277.69c.12.08-4.49,6.82-10.29,15S271.16,307.56,271,307.48s4.49-6.82,10.29-15.05S291.92,277.6,292,277.69Z" style="fill:#455a64"></path><path d="M288.7,285.54a13.17,13.17,0,0,1-1.38,2.26c-.91,1.36-2.19,3.22-3.63,5.25s-2.77,3.86-3.76,5.16a12.84,12.84,0,0,1-1.68,2.05,14.15,14.15,0,0,1,1.39-2.26c.9-1.36,2.18-3.22,3.62-5.25s2.77-3.85,3.76-5.16A13.46,13.46,0,0,1,288.7,285.54Z" style="fill:#fff"></path><path d="M294.85,291.87a45.15,45.15,0,0,1-6.91,10,51,51,0,0,1,3.36-5A49.39,49.39,0,0,1,294.85,291.87Z" style="fill:#fff"></path><path d="M296.66,289.5c.11.09,0,.37-.16.64s-.46.4-.58.31,0-.37.16-.63S296.54,289.42,296.66,289.5Z" style="fill:#fff"></path><path d="M259.93,453.07l-.22,25.52,32.52.44c-.15-3-16.89-9.35-16.89-9.35l.83-16.35Z" style="fill:#455a64"></path><path d="M265.3,468.17a1.3,1.3,0,0,0-.94,1.47,1.29,1.29,0,0,0,1.49.92,1.37,1.37,0,0,0,1-1.56,1.32,1.32,0,0,0-1.65-.79" style="fill:#fff"></path><path d="M259.7,478.65v-2.74L291,477.5s1.44.64,1.25,1.63Z" style="fill:#263238"></path><path d="M275.87,469.52c0,.16-.8.22-1.59.71s-1.21,1.13-1.36,1.07.1-1,1.07-1.53S275.91,469.38,275.87,469.52Z" style="fill:#263238"></path><path d="M279.26,471c0,.15-.65.4-1.2,1.05s-.72,1.34-.88,1.33-.24-.89.46-1.68S279.26,470.8,279.26,471Z" style="fill:#263238"></path><path d="M281.14,475c-.14,0-.35-.75.07-1.59s1.17-1.17,1.23-1-.4.58-.73,1.27S281.3,475,281.14,475Z" style="fill:#263238"></path><path d="M275.64,465.78c-.07.14-.8-.08-1.7,0s-1.6.32-1.68.18.6-.67,1.66-.72S275.72,465.66,275.64,465.78Z" style="fill:#263238"></path><path d="M221,436.6,203.9,455.91l24.5,20.88c1.9-2.4-6.67-17.79-6.67-17.79l11.47-11.94Z" style="fill:#455a64"></path><path d="M215.08,451.5a1.35,1.35,0,0,0-1.69.53,1.24,1.24,0,0,0,.52,1.64,1.42,1.42,0,0,0,1.78-.57,1.28,1.28,0,0,0-.73-1.65" style="fill:#fff"></path><path d="M203.86,456l1.82-2.08,22.78,21s.67,1.4-.13,2Z" style="fill:#263238"></path><path d="M222.23,459.21c-.1.12-.75-.34-1.67-.47s-1.68.1-1.75,0,.71-.66,1.83-.49S222.36,459.13,222.23,459.21Z" style="fill:#263238"></path><path d="M223.88,462.44c-.08.14-.77-.11-1.62,0s-1.43.57-1.55.46.4-.83,1.46-1S224,462.33,223.88,462.44Z" style="fill:#263238"></path><path d="M222.65,466.69c-.13-.07.22-.8,1.1-1.17s1.67-.16,1.63,0-.68.19-1.4.51S222.78,466.78,222.65,466.69Z" style="fill:#263238"></path><path d="M224.54,456.21c-.15.06-.55-.57-1.27-1.1s-1.43-.77-1.4-.92.91-.14,1.74.5S224.68,456.17,224.54,456.21Z" style="fill:#263238"></path><path d="M232,330.94a73.44,73.44,0,0,1-6.41,17.1c-7.85,14.78-20.59,33.75-22.61,37.82-3.05,6.11,1.93,9.88,13.62,9.71s9.73-7.72,18.74-4.47,16.22-4.75,16.22-4.75l6.61-54.48Z" style="fill:#FF725E"></path><path d="M273.46,335.65,274.54,347s12.88,45.88,11.1,58.66c-2.25,16.08-7.47,59.05-7.47,59.05l-20.05.48s-.42-38.63,3.07-55.34c3.75-17.94-7.57-71.84-7.57-71.84Z" style="fill:#263238"></path><path d="M270,367.83c.33-5,4.4-36.61,4.4-36.61l-37.46-1.35s-2.8.15-3.32,4.55c0,0-3.37,7.18-3.66,19-.21,9.08,5.79,24.93,5.79,24.93a211.65,211.65,0,0,0,8.66,19.86L206.85,443.8l19.33,14.44s46-46.7,47.76-54.26C276.57,392.64,269.7,372,270,367.83Z" style="fill:#263238"></path><path d="M263.11,354.87a1.17,1.17,0,0,1,.1.23l.24.69.9,2.67c.78,2.36,1.87,5.72,3.22,9.84s2.88,9.15,4.43,14.73c.77,2.78,1.54,5.72,2.3,8.78s1.57,6.3,1.17,9.71a13.11,13.11,0,0,1-1.54,4.77,34,34,0,0,1-2.79,3.95c-2,2.47-4,4.75-5.9,6.91-3.86,4.31-7.45,8.1-10.48,11.25s-5.55,5.65-7.3,7.36c-.87.85-1.56,1.51-2,1.95l-.54.49-.2.16s.05-.07.16-.2l.51-.53,2-2c1.71-1.76,4.17-4.3,7.17-7.48s6.55-7,10.39-11.31c1.91-2.17,3.91-4.45,5.86-6.91a34.28,34.28,0,0,0,2.74-3.88,12.68,12.68,0,0,0,1.47-4.59c.39-3.27-.42-6.48-1.15-9.52s-1.5-6-2.26-8.78c-1.52-5.57-3-10.55-4.32-14.73s-2.33-7.52-3.06-9.9l-.81-2.7-.19-.71C263.11,355,263.1,354.87,263.11,354.87Z" style="fill:#455a64"></path><path d="M274.75,329.28l1.53,8.1-43.13,3.72s.33-7.4,1-10.09S274.75,329.28,274.75,329.28Z" style="fill:#FF725E"></path><path d="M235.43,268.42s-8.49-3.35-13.29-2.47-16.78,13.75-18.81,17.92-9.23,28.55-10.15,33.85.31,14.64,4.53,17c3.88,2.19,19.27,7.37,28.12,6.31l.27,0a12.08,12.08,0,0,0,10.62-11.9V279.56Z" style="fill:#263238"></path><path d="M201.3,387.54c10.15-17,19.8-35.12,31.55-51.24,1.26-1.73,4.68-1.5,6.6-2.63a9.5,9.5,0,0,1,8.59-.42l10.08,4.82c-10.64,9.85-22.47,16.71-31.18,28.21a40.28,40.28,0,0,0-8,29.29l-13.52-1c-1.84-.13-3.94-.41-4.92-1.8C199.37,391.22,200.32,389.18,201.3,387.54Z" style="fill:#FF725E"></path><path d="M234.45,358.46a8.12,8.12,0,0,1-1.06,1.19c-.36.36-.8.81-1.27,1.36s-1.05,1.14-1.62,1.86a57,57,0,0,0-3.81,5.16,59.69,59.69,0,0,0-3.8,6.85,58.89,58.89,0,0,0-2.79,7.33,56.39,56.39,0,0,0-1.46,6.24c-.18.9-.27,1.72-.37,2.44s-.17,1.34-.22,1.85a9.51,9.51,0,0,1-.2,1.58,9.37,9.37,0,0,1,0-1.6c0-.51.05-1.14.13-1.86s.14-1.56.3-2.47a49.16,49.16,0,0,1,1.36-6.31,51.15,51.15,0,0,1,6.65-14.32,50,50,0,0,1,3.93-5.12c.59-.71,1.19-1.3,1.69-1.83s1-1,1.33-1.31A10.22,10.22,0,0,1,234.45,358.46Z" style="fill:#263238"></path><path d="M230.07,267.29a7.72,7.72,0,0,1-.79,1.28c-.55.79-1.35,1.94-2.37,3.33-2,2.78-5,6.55-8.41,10.55-1.73,2-3.27,4-5.28,5.28a6.31,6.31,0,0,1-3.15,1c-1,.07-2,.14-2.83.14a8.23,8.23,0,0,1-4-.8,4.41,4.41,0,0,1-.9-.67,1.56,1.56,0,0,1-.26-.3,12.92,12.92,0,0,0,1.25.79,8.57,8.57,0,0,0,3.94.61c.85,0,1.79-.11,2.8-.2a5.88,5.88,0,0,0,2.92-1c1.88-1.2,3.41-3.24,5.15-5.21,3.42-4,6.39-7.71,8.5-10.43l2.5-3.23A8.06,8.06,0,0,1,230.07,267.29Z" style="fill:#455a64"></path><path d="M237.05,327a10.6,10.6,0,0,1-1.77-.1c-1.14-.1-2.78-.27-4.8-.52-4-.49-9.61-1.3-15.72-2.47s-11.59-2.48-15.53-3.52c-2-.52-3.55-1-4.64-1.3a11.07,11.07,0,0,1-1.68-.56,12.66,12.66,0,0,1,1.73.37l4.68,1.13c4,.95,9.44,2.19,15.54,3.36s11.64,2.05,15.67,2.63l4.77.68A12.9,12.9,0,0,1,237.05,327Z" style="fill:#455a64"></path><path d="M216.72,284.37a8.5,8.5,0,0,1,.14,1.54c.06,1,.1,2.43.12,4.22a132.07,132.07,0,0,1-2.76,27.66c-.37,1.75-.7,3.15-.95,4.11a8.54,8.54,0,0,1-.45,1.49,10,10,0,0,1,.25-1.53c.2-1.07.47-2.46.78-4.14.65-3.49,1.41-8.35,2-13.74s.74-10.3.8-13.86c0-1.7,0-3.12,0-4.21A7.78,7.78,0,0,1,216.72,284.37Z" style="fill:#455a64"></path><path d="M221.22,268.33a20.16,20.16,0,0,1-1.75-3.51,1.57,1.57,0,0,1-.13-.88c.09-.41.5-.67.88-.88a13,13,0,0,1,7.24-1.43,3.11,3.11,0,0,1,1.47.43,2.58,2.58,0,0,1,.76,2.69c-.2,1-.67,1.88-.79,2.86l-1.35-.32c.18-1.1.37-2.2.55-3.29a1.56,1.56,0,0,0-.08-1.09c-.3-.49-1-.52-1.58-.48-1.38.1-2.75.24-4.12.44-.67.09-1.45.3-1.67.92a1.72,1.72,0,0,0,.24,1.29,12.06,12.06,0,0,0,2.14,3" style="fill:#263238"></path><path d="M210.28,286.64l-2.6.17a1,1,0,0,0-.16.5l-.21,1.51a4.09,4.09,0,0,0,0,1.48,1.42,1.42,0,0,0,.93,1.09,1.46,1.46,0,0,0,1.62-.87,5,5,0,0,0,.44-1.91C210.32,288,210.28,287.41,210.28,286.64Z" style="fill:#455a64"></path><path d="M215.68,307.5a12.93,12.93,0,0,1-2.75-.27c-1.69-.25-4-.67-6.54-1.25s-4.8-1.22-6.42-1.73a13.72,13.72,0,0,1-2.59-.95,16.18,16.18,0,0,1,2.69.6c1.65.42,3.92,1,6.44,1.57s4.82,1,6.48,1.4A16.71,16.71,0,0,1,215.68,307.5Z" style="fill:#455a64"></path><path d="M212.34,295a2.57,2.57,0,0,0-2.35-.06,5.61,5.61,0,0,0-2,1.79,12.51,12.51,0,0,0-1.13-2.13,3.18,3.18,0,0,0-1.77-1.15,1.92,1.92,0,0,0-2.13,1.34,4.67,4.67,0,0,0,.74,3.54,25.82,25.82,0,0,0,2.59,4.08,1,1,0,0,0,1.43.17,28.25,28.25,0,0,0,4.47-4.34,3.77,3.77,0,0,0,.93-1.66A1.69,1.69,0,0,0,212.34,295Z" style="fill:#FF725E"></path><path d="M229.65,292.1a1.79,1.79,0,0,1,.45.61,2.76,2.76,0,0,1,0,2.17,2.87,2.87,0,0,1-.94,1.3,2.4,2.4,0,0,1-1.86.47,3.52,3.52,0,0,1-2-1,2.6,2.6,0,0,1-.67-1.06,1.74,1.74,0,0,1,.1-1.34v0a.72.72,0,0,1,.85-.11,2.39,2.39,0,0,1,.64.43,8.36,8.36,0,0,1,1,1.11,11.48,11.48,0,0,1,1.65,2.77,4.89,4.89,0,0,1,0,3.51,3.84,3.84,0,0,1-1.14,1.52,3.06,3.06,0,0,1-1.87.63,3.58,3.58,0,0,1-1.94-.56,2.48,2.48,0,0,1-1.18-1.73,1.69,1.69,0,0,1,.19-1.12,1.06,1.06,0,0,1,1.08-.58,2.43,2.43,0,0,1,1,.52c.28.21.56.43.82.66a7.51,7.51,0,0,1,2.4,3.56,4.79,4.79,0,0,1-.86,4.33,3.74,3.74,0,0,1-4.09,1,2.58,2.58,0,0,1-1.54-1.54,1.66,1.66,0,0,1,0-1.16,1.28,1.28,0,0,1,.92-.76,2.77,2.77,0,0,1,2,.6,10.18,10.18,0,0,1,1.5,1.27,7.27,7.27,0,0,1,1.91,3.3,4.83,4.83,0,0,1-3,5.83A3.77,3.77,0,0,1,222,316a3.06,3.06,0,0,1-1.37-2.61,2,2,0,0,1,.55-1.33,1.31,1.31,0,0,1,1.35-.31,3.15,3.15,0,0,1,1.64,1.74,8.72,8.72,0,0,1,.83,3.68,8.21,8.21,0,0,1-.35,2.35c-.08.26-.16.45-.21.58a.73.73,0,0,1-.1.19,10.78,10.78,0,0,0,.45-3.12,8.54,8.54,0,0,0-.88-3.55,2.84,2.84,0,0,0-1.48-1.55,1,1,0,0,0-1,.24,1.61,1.61,0,0,0-.42,1.1c-.11,1.74,2.06,3.35,4,2.81a4.39,4.39,0,0,0,2.68-5.3,6.91,6.91,0,0,0-1.8-3.06,10.48,10.48,0,0,0-1.44-1.21,2.34,2.34,0,0,0-1.63-.51.89.89,0,0,0-.55,1.26,2.05,2.05,0,0,0,1.24,1.22,3.22,3.22,0,0,0,3.5-.85,4.24,4.24,0,0,0,.76-3.85,7,7,0,0,0-2.24-3.32q-.37-.33-.78-.63a2.08,2.08,0,0,0-.77-.43c-.47-.1-.82.59-.71,1.13a2.55,2.55,0,0,0,2.63,1.88,2.81,2.81,0,0,0,2.59-1.85,4.42,4.42,0,0,0,.06-3.18,11.38,11.38,0,0,0-1.55-2.68,9.16,9.16,0,0,0-1-1.07c-.33-.3-.8-.58-1-.36l0,0a1.75,1.75,0,0,0,.47,2,3.29,3.29,0,0,0,1.8.94,2.14,2.14,0,0,0,1.68-.38,2.64,2.64,0,0,0,.9-1.18,2.76,2.76,0,0,0,0-2.06C229.82,292.31,229.62,292.12,229.65,292.1Z" style="fill:#fff"></path><path d="M234.66,313.41a8.32,8.32,0,0,1-1.72,2.37,8.45,8.45,0,0,1-2.11,2,16.33,16.33,0,0,1,3.83-4.39Z" style="fill:#fff"></path><path d="M235.43,268.42s-8.49-3.35-13.29-2.47-16.78,13.75-18.81,17.92-9.23,28.55-10.15,33.85.31,14.64,4.53,17c3.88,2.19,19.27,7.37,28.12,6.31l.27,0a12.08,12.08,0,0,0,10.62-11.9V279.56Z" style="fill:#263238"></path><path d="M230.07,267.29a7.72,7.72,0,0,1-.79,1.28c-.55.79-1.35,1.94-2.37,3.33-2,2.78-5,6.55-8.41,10.55-1.73,2-3.27,4-5.28,5.28a6.31,6.31,0,0,1-3.15,1c-1,.07-2,.14-2.83.14a8.23,8.23,0,0,1-4-.8,4.41,4.41,0,0,1-.9-.67,1.56,1.56,0,0,1-.26-.3,12.92,12.92,0,0,0,1.25.79,8.57,8.57,0,0,0,3.94.61c.85,0,1.79-.11,2.8-.2a5.88,5.88,0,0,0,2.92-1c1.88-1.2,3.41-3.24,5.15-5.21,3.42-4,6.39-7.71,8.5-10.43l2.5-3.23A8.06,8.06,0,0,1,230.07,267.29Z" style="fill:#455a64"></path><path d="M237.05,327a10.6,10.6,0,0,1-1.77-.1c-1.14-.1-2.78-.27-4.8-.52-4-.49-9.61-1.3-15.72-2.47s-11.59-2.48-15.53-3.52c-2-.52-3.55-1-4.64-1.3a11.07,11.07,0,0,1-1.68-.56,12.66,12.66,0,0,1,1.73.37l4.68,1.13c4,.95,9.44,2.19,15.54,3.36s11.64,2.05,15.67,2.63l4.77.68A12.9,12.9,0,0,1,237.05,327Z" style="fill:#455a64"></path><path d="M216.72,284.37a8.5,8.5,0,0,1,.14,1.54c.06,1,.1,2.43.12,4.22a132.07,132.07,0,0,1-2.76,27.66c-.37,1.75-.7,3.15-.95,4.11a8.54,8.54,0,0,1-.45,1.49,10,10,0,0,1,.25-1.53c.2-1.07.47-2.46.78-4.14.65-3.49,1.41-8.35,2-13.74s.74-10.3.8-13.86c0-1.7,0-3.12,0-4.21A7.78,7.78,0,0,1,216.72,284.37Z" style="fill:#455a64"></path><path d="M221.22,268.33a20.16,20.16,0,0,1-1.75-3.51,1.57,1.57,0,0,1-.13-.88c.09-.41.5-.67.88-.88a13,13,0,0,1,7.24-1.43,3.11,3.11,0,0,1,1.47.43,2.58,2.58,0,0,1,.76,2.69c-.2,1-.67,1.88-.79,2.86l-1.35-.32c.18-1.1.37-2.2.55-3.29a1.56,1.56,0,0,0-.08-1.09c-.3-.49-1-.52-1.58-.48-1.38.1-2.75.24-4.12.44-.67.09-1.45.3-1.67.92a1.72,1.72,0,0,0,.24,1.29,12.06,12.06,0,0,0,2.14,3" style="fill:#263238"></path><path d="M210.28,286.64l-2.6.17a1,1,0,0,0-.16.5l-.21,1.51a4.09,4.09,0,0,0,0,1.48,1.42,1.42,0,0,0,.93,1.09,1.46,1.46,0,0,0,1.62-.87,5,5,0,0,0,.44-1.91C210.32,288,210.28,287.41,210.28,286.64Z" style="fill:#455a64"></path><path d="M215.68,307.5a12.93,12.93,0,0,1-2.75-.27c-1.69-.25-4-.67-6.54-1.25s-4.8-1.22-6.42-1.73a13.72,13.72,0,0,1-2.59-.95,16.18,16.18,0,0,1,2.69.6c1.65.42,3.92,1,6.44,1.57s4.82,1,6.48,1.4A16.71,16.71,0,0,1,215.68,307.5Z" style="fill:#455a64"></path><path d="M212.34,295a2.57,2.57,0,0,0-2.35-.06,5.61,5.61,0,0,0-2,1.79,12.51,12.51,0,0,0-1.13-2.13,3.18,3.18,0,0,0-1.77-1.15,1.92,1.92,0,0,0-2.13,1.34,4.67,4.67,0,0,0,.74,3.54,25.82,25.82,0,0,0,2.59,4.08,1,1,0,0,0,1.43.17,28.25,28.25,0,0,0,4.47-4.34,3.77,3.77,0,0,0,.93-1.66A1.69,1.69,0,0,0,212.34,295Z" style="fill:#FF725E"></path><path d="M229.65,292.1a1.79,1.79,0,0,1,.45.61,2.76,2.76,0,0,1,0,2.17,2.87,2.87,0,0,1-.94,1.3,2.4,2.4,0,0,1-1.86.47,3.52,3.52,0,0,1-2-1,2.6,2.6,0,0,1-.67-1.06,1.74,1.74,0,0,1,.1-1.34v0a.72.72,0,0,1,.85-.11,2.39,2.39,0,0,1,.64.43,8.36,8.36,0,0,1,1,1.11,11.48,11.48,0,0,1,1.65,2.77,4.89,4.89,0,0,1,0,3.51,3.84,3.84,0,0,1-1.14,1.52,3.06,3.06,0,0,1-1.87.63,3.58,3.58,0,0,1-1.94-.56,2.48,2.48,0,0,1-1.18-1.73,1.69,1.69,0,0,1,.19-1.12,1.06,1.06,0,0,1,1.08-.58,2.43,2.43,0,0,1,1,.52c.28.21.56.43.82.66a7.51,7.51,0,0,1,2.4,3.56,4.79,4.79,0,0,1-.86,4.33,3.74,3.74,0,0,1-4.09,1,2.58,2.58,0,0,1-1.54-1.54,1.66,1.66,0,0,1,0-1.16,1.28,1.28,0,0,1,.92-.76,2.77,2.77,0,0,1,2,.6,10.18,10.18,0,0,1,1.5,1.27,7.27,7.27,0,0,1,1.91,3.3,4.83,4.83,0,0,1-3,5.83A3.77,3.77,0,0,1,222,316a3.06,3.06,0,0,1-1.37-2.61,2,2,0,0,1,.55-1.33,1.31,1.31,0,0,1,1.35-.31,3.15,3.15,0,0,1,1.64,1.74,8.72,8.72,0,0,1,.83,3.68,8.21,8.21,0,0,1-.35,2.35c-.08.26-.16.45-.21.58a.73.73,0,0,1-.1.19,10.78,10.78,0,0,0,.45-3.12,8.54,8.54,0,0,0-.88-3.55,2.84,2.84,0,0,0-1.48-1.55,1,1,0,0,0-1,.24,1.61,1.61,0,0,0-.42,1.1c-.11,1.74,2.06,3.35,4,2.81a4.39,4.39,0,0,0,2.68-5.3,6.91,6.91,0,0,0-1.8-3.06,10.48,10.48,0,0,0-1.44-1.21,2.34,2.34,0,0,0-1.63-.51.89.89,0,0,0-.55,1.26,2.05,2.05,0,0,0,1.24,1.22,3.22,3.22,0,0,0,3.5-.85,4.24,4.24,0,0,0,.76-3.85,7,7,0,0,0-2.24-3.32q-.37-.33-.78-.63a2.08,2.08,0,0,0-.77-.43c-.47-.1-.82.59-.71,1.13a2.55,2.55,0,0,0,2.63,1.88,2.81,2.81,0,0,0,2.59-1.85,4.42,4.42,0,0,0,.06-3.18,11.38,11.38,0,0,0-1.55-2.68,9.16,9.16,0,0,0-1-1.07c-.33-.3-.8-.58-1-.36l0,0a1.75,1.75,0,0,0,.47,2,3.29,3.29,0,0,0,1.8.94,2.14,2.14,0,0,0,1.68-.38,2.64,2.64,0,0,0,.9-1.18,2.76,2.76,0,0,0,0-2.06C229.82,292.31,229.62,292.12,229.65,292.1Z" style="fill:#fff"></path><path d="M234.66,313.41a8.32,8.32,0,0,1-1.72,2.37,8.45,8.45,0,0,1-2.11,2,16.33,16.33,0,0,1,3.83-4.39Z" style="fill:#fff"></path><path d="M234.13,317.89a6.93,6.93,0,0,1-1.59-2.39,6.78,6.78,0,0,1-1-2.69,9.29,9.29,0,0,1,1.43,2.46A9.78,9.78,0,0,1,234.13,317.89Z" style="fill:#fff"></path><path d="M238.16,285.09a1.47,1.47,0,0,1,.39,0l1.15,0,4.35-.14c3.75-.09,9.1-.37,15.5-.15l-.23.28a44.82,44.82,0,0,1-.6-9.22,24.11,24.11,0,0,0-1.64-9.93,9.86,9.86,0,0,0-5.55-5.48,9.35,9.35,0,0,0-7.25.41,10.33,10.33,0,0,0-4.54,4.88,17.33,17.33,0,0,0-1.56,5.73,80.25,80.25,0,0,0-.05,8.73c0,1,0,1.84,0,2.38a4.11,4.11,0,0,1-.08.83,5.32,5.32,0,0,1,0-.83c0-.54,0-1.35-.07-2.38a72,72,0,0,1-.1-8.76,17.55,17.55,0,0,1,1.53-5.89,10.75,10.75,0,0,1,4.71-5.12,9.85,9.85,0,0,1,7.65-.46,10.36,10.36,0,0,1,5.85,5.75,24.36,24.36,0,0,1,1.66,10.13,45.1,45.1,0,0,0,.55,9.13l.06.29h-.3c-6.37-.27-11.72-.06-15.47,0-1.88,0-3.35,0-4.36,0l-1.15,0A1.93,1.93,0,0,1,238.16,285.09Z" style="fill:#263238"></path><path d="M238.57,285c0,.47,1.2,35.77,2.73,39.86s7.15,7.91,12.27,7.57,31.29-8.59,31.29-8.59l3.85-9.15-30.92,0,.14-30Z" style="fill:#ffbf9d"></path><path d="M289,305s3.28.88,3.86,2.41.84,2.9,1.43,4.75-.81,6.56-1.4,7.84-10.8,4.85-10.8,4.85l-1.66-6.68,7-3v-2.9Z" style="fill:#ffbf9d"></path><path d="M289.32,306.65s.49-1.51,0-2.26a2.47,2.47,0,0,0-2.84-.53c-1,.43-2.57,1.44-2.46,2.08a3.87,3.87,0,0,0,.34,1.07s-3.69-1.5-4.52-1.68-2.79.67-2.24,2.06l.21.38a2,2,0,0,0-2.27-.17,2.12,2.12,0,0,0-.45,3s-1.95-.08-2,1.57.4,1.66.4,1.66a2,2,0,0,0-.8,2.41c.22.93,5.76,4.27,7.55,3.74s2.12-1.66,2.79-1.87a5.27,5.27,0,0,0,2.45-1.61c.39-.69,1.9-1.39,2-2.35s.86-2.21.92-3.55a23.38,23.38,0,0,1,.45-3.16Z" style="fill:#ffbf9d"></path><path d="M289.32,306.65a4.22,4.22,0,0,1-.38.79v0a31,31,0,0,0-.42,3.66,22,22,0,0,1-.78,2.75l-.07.38a1.59,1.59,0,0,1-.16.43,3.39,3.39,0,0,1-.56.69,10.2,10.2,0,0,0-1.26,1.18,3.77,3.77,0,0,1-1.49,1.28,7.17,7.17,0,0,1-.93.43,1.24,1.24,0,0,0-.4.19,2.54,2.54,0,0,0-.35.32,4.9,4.9,0,0,1-1.78,1.29,2.38,2.38,0,0,1-1.17.21,5,5,0,0,1-1.15-.23,17.46,17.46,0,0,1-4.25-2.09,11.72,11.72,0,0,1-1-.74,4.12,4.12,0,0,1-.48-.46,1.22,1.22,0,0,1-.31-.67,2.26,2.26,0,0,1,1-2.47l.11.49a.49.49,0,0,1-.39-.26,2.59,2.59,0,0,1-.26-1.22,2.62,2.62,0,0,1,.19-1.21,1.71,1.71,0,0,1,.92-.84,3,3,0,0,1,1.17-.22l-.22.41a2.42,2.42,0,0,1,.18-3.05,2,2,0,0,1,1.46-.61,2.55,2.55,0,0,1,1.44.52l-.37.3-.2-.38h0a1.48,1.48,0,0,1,.12-1.34,2.28,2.28,0,0,1,1-.79,2.48,2.48,0,0,1,1.17-.27,4.63,4.63,0,0,1,1.1.29c1.34.49,2.56,1,3.7,1.46l-.25.27a4.79,4.79,0,0,1-.34-1.12.84.84,0,0,1,.2-.63,2.54,2.54,0,0,1,.39-.41,8.32,8.32,0,0,1,1.66-1.07,2.8,2.8,0,0,1,3.08.19,1.49,1.49,0,0,1,.45,1.09,3.26,3.26,0,0,1-.09.84,1.91,1.91,0,0,1-.21.66s0-.24.1-.68a3.45,3.45,0,0,0,0-.81,1.27,1.27,0,0,0-.43-.94,2.57,2.57,0,0,0-2.79-.07,8,8,0,0,0-1.57,1.06c-.23.2-.49.51-.45.71a3.89,3.89,0,0,0,.32,1l.23.46-.48-.19c-1.14-.45-2.37-.93-3.69-1.4a4.54,4.54,0,0,0-1-.26,2.27,2.27,0,0,0-1,.24,1.88,1.88,0,0,0-.76.63,1,1,0,0,0-.07.9v0l.2.38.51.94-.87-.63a2.07,2.07,0,0,0-1.15-.4,1.47,1.47,0,0,0-1.09.47,1.92,1.92,0,0,0-.12,2.39l.29.4h-.51a1.73,1.73,0,0,0-1.61.78,2.26,2.26,0,0,0-.13,1,2.21,2.21,0,0,0,.18.95l0,0s0,0,0,.05l0,0v.07h0l0-.18h0l.11.49a1.78,1.78,0,0,0-.7,1.92.69.69,0,0,0,.2.43,3.07,3.07,0,0,0,.41.39,9.93,9.93,0,0,0,1,.71,17.28,17.28,0,0,0,4.1,2,4.5,4.5,0,0,0,1,.22,1.9,1.9,0,0,0,1-.17,4.53,4.53,0,0,0,1.64-1.17,2.83,2.83,0,0,1,.4-.36,1.58,1.58,0,0,1,.52-.24,6.85,6.85,0,0,0,.87-.4,3.42,3.42,0,0,0,1.37-1.13,10.52,10.52,0,0,1,1.33-1.23,2.71,2.71,0,0,0,.5-.59,2.55,2.55,0,0,0,.22-.72,26.29,26.29,0,0,0,.83-2.7,24.6,24.6,0,0,1,.58-3.65h0A3.92,3.92,0,0,1,289.32,306.65Z" style="fill:#ff9a6c"></path><path d="M276.37,316.75c-.07.12-1-.33-1.88-1.26s-1.24-1.91-1.11-2,.68.75,1.49,1.62S276.45,316.62,276.37,316.75Z" style="fill:#ff9a6c"></path><path d="M279.47,314.2a10.58,10.58,0,0,1-2.23-1.78c-1.18-1-2.14-1.85-2.06-2a6.42,6.42,0,0,1,2.4,1.58A6.65,6.65,0,0,1,279.47,314.2Z" style="fill:#ff9a6c"></path><path d="M283.9,311.53a10.38,10.38,0,0,1-3.28-1.5,10.1,10.1,0,0,1-2.89-2.15,16.22,16.22,0,0,1,3.15,1.71A15.81,15.81,0,0,1,283.9,311.53Z" style="fill:#ff9a6c"></path><path d="M287.93,307.82c.07.12-.8.55-1.89.29s-1.67-1-1.56-1.11.74.39,1.68.6S287.89,307.68,287.93,307.82Z" style="fill:#ff9a6c"></path><path d="M252.11,320.48a6,6,0,0,1,2.07-3.69,6.19,6.19,0,0,1,3.75-1.94,20.2,20.2,0,0,0-3.39,2.32A18.3,18.3,0,0,0,252.11,320.48Z" style="fill:#ff9a6c"></path><path d="M245.47,236.2l-.14,0a.32.32,0,0,0-.11.49.34.34,0,0,0,.51-.08A.32.32,0,0,0,245.47,236.2Z" style="fill:#ff9a6c"></path><path d="M244.8,238.73l-.15,0a.33.33,0,0,0-.1.5.32.32,0,0,0,.5-.08A.32.32,0,0,0,244.8,238.73Z" style="fill:#ff9a6c"></path><path d="M259.14,239.62l-.14,0a.31.31,0,0,0-.11.49.34.34,0,0,0,.51-.08A.32.32,0,0,0,259.14,239.62Z" style="fill:#ff9a6c"></path><path d="M278.51,344.4c-.68-2.54-2.51-6.89-5-7.91l-.39,7.26a84.91,84.91,0,0,0,4.16,18.34A27.41,27.41,0,0,0,278.51,344.4Z" style="fill:#FF725E"></path><path d="M267.79,352.05c.83-6.21,3.57-12.21,3.32-18.45l3.21,2.89c3,6.66,3.82,14.05,4.06,21.33s-.07,14.6.87,21.81a16.1,16.1,0,0,0-3.43.43,3.71,3.71,0,0,1-3.22-.77,4.06,4.06,0,0,1-.79-1.63C269.24,369.33,266.63,360.71,267.79,352.05Z" style="fill:#FF725E"></path><path d="M270.21,333.47A4.29,4.29,0,1,0,274.5,329,4.38,4.38,0,0,0,270.21,333.47Z" style="fill:#FF725E"></path><path d="M275.81,329.12a1.65,1.65,0,0,0-.74-.22,4.14,4.14,0,0,0-2.13.18,4.44,4.44,0,0,0-2.37,2.08,4.85,4.85,0,0,0,2,6.76,4.38,4.38,0,0,0,3.18.25,4.32,4.32,0,0,0,1.83-1.08c.34-.36.46-.62.43-.64a6.07,6.07,0,0,1-2.38,1.3,4,4,0,0,1-2.8-.33,4.41,4.41,0,0,1-1.71-6,4.14,4.14,0,0,1,2-1.94,4.57,4.57,0,0,1,1.95-.35C275.53,329.14,275.8,329.17,275.81,329.12Z" style="fill:#263238"></path><path d="M275,337.73a3.34,3.34,0,0,1,.41.91c.24.6.54,1.48.88,2.58a57.52,57.52,0,0,1,1.9,8.8,56.51,56.51,0,0,1,.5,9c0,1.15-.08,2.08-.15,2.72a3.6,3.6,0,0,1-.16,1c-.08,0,0-1.42-.06-3.71a72.48,72.48,0,0,0-.65-8.91,75.61,75.61,0,0,0-1.74-8.77C275.36,339.11,274.93,337.75,275,337.73Z" style="fill:#263238"></path></g></svg>